<svg width="111" height="60" viewBox="0 0 111 60" fill="none" xmlns="http://www.w3.org/2000/svg">
<path d="M32.92 60V56.76C32.92 35.64 31.6 16.72 28.96 -7.62939e-06H0.159985C1.67999 7.35999 2.43999 15.84 2.43999 25.44C2.43999 35.12 1.79999 46.64 0.519985 60H32.92ZM109.898 60C110.378 51.6 110.618 42.72 110.618 33.36C110.618 24.08 110.218 12.96 109.418 -7.62939e-06H97.8981C82.3781 8.31999 68.1381 19.64 55.1781 33.96C55.8181 28.6 56.1381 23.08 56.1381 17.4C56.1381 11.8 55.9381 5.99999 55.5381 -7.62939e-06H41.4981C43.0981 9.83999 43.8981 18.92 43.8981 27.24C43.8981 35.64 43.4981 42.28 42.6981 47.16C39.4981 51.96 36.9781 56.24 35.1381 60H69.2181C72.5781 54.24 77.1381 48.28 82.8981 42.12C88.7381 36.04 94.2981 31.28 99.5781 27.84C99.5781 39.52 98.2581 50.24 95.6181 60H109.898Z" fill="url(#paint0_linear_38_7)"/>
<defs>
<linearGradient id="paint0_linear_38_7" x1="-8.00002" y1="33" x2="119" y2="33" gradientUnits="userSpaceOnUse">
<stop stop-color="#0EA371"/>
<stop offset="1" stop-color="#053D2A"/>
</linearGradient>
</defs>
</svg>
