<svg width="54" height="71" viewBox="0 0 54 71" fill="none" xmlns="http://www.w3.org/2000/svg">
<path d="M0.529412 0.411769H4.05882V3.94118H0.529412V0.411769ZM4.05882 0.411769H7.58823V3.94118H4.05882V0.411769ZM7.58823 0.411769H11.1176V3.94118H7.58823V0.411769ZM11.1176 0.411769H14.6471V3.94118H11.1176V0.411769ZM14.6471 0.411769H18.1765V3.94118H14.6471V0.411769ZM14.6471 3.94118H18.1765V7.47059H14.6471V3.94118ZM14.6471 7.47059H18.1765V11H14.6471V7.47059ZM14.6471 11H18.1765V14.5294H14.6471V11ZM18.1765 7.47059H21.7059V11H18.1765V7.47059ZM18.1765 11H21.7059V14.5294H18.1765V11ZM18.1765 14.5294H21.7059V18.0588H18.1765V14.5294ZM18.1765 18.0588H21.7059V21.5882H18.1765V18.0588ZM18.1765 21.5882H21.7059V25.1176H18.1765V21.5882ZM18.1765 25.1176H21.7059V28.6471H18.1765V25.1176ZM18.1765 28.6471H21.7059V32.1765H18.1765V28.6471ZM14.6471 28.6471H18.1765V32.1765H14.6471V28.6471ZM14.6471 25.1176H18.1765V28.6471H14.6471V25.1176ZM14.6471 21.5882H18.1765V25.1176H14.6471V21.5882ZM14.6471 18.0588H18.1765V21.5882H14.6471V18.0588ZM14.6471 14.5294H18.1765V18.0588H14.6471V14.5294ZM0.529412 67.4706H4.05882V71H0.529412V67.4706ZM4.05882 67.4706H7.58823V71H4.05882V67.4706ZM7.58823 67.4706H11.1176V71H7.58823V67.4706ZM11.1176 63.9412H14.6471V67.4706H11.1176V63.9412ZM11.1176 60.4118H14.6471V63.9412H11.1176V60.4118ZM11.1176 56.8824H14.6471V60.4118H11.1176V56.8824ZM7.58823 56.8824H11.1176V60.4118H7.58823V56.8824ZM7.58823 60.4118H11.1176V63.9412H7.58823V60.4118ZM11.1176 67.4706H14.6471V71H11.1176V67.4706ZM7.58823 63.9412H11.1176V67.4706H7.58823V63.9412ZM4.05882 63.9412H7.58823V67.4706H4.05882V63.9412ZM0.529412 63.9412H4.05882V67.4706H0.529412V63.9412ZM0.529412 60.4118H4.05882V63.9412H0.529412V60.4118ZM0.529412 56.8824H4.05882V60.4118H0.529412V56.8824ZM4.05882 56.8824H7.58823V60.4118H4.05882V56.8824ZM4.05882 60.4118H7.58823V63.9412H4.05882V60.4118ZM4.05882 53.3529H7.58823V56.8824H4.05882V53.3529ZM0.529412 53.3529H4.05882V56.8824H0.529412V53.3529ZM0.529412 49.8235H4.05882V53.3529H0.529412V49.8235ZM0.529412 46.2941H4.05882V49.8235H0.529412V46.2941ZM0.529412 42.7647H4.05882V46.2941H0.529412V42.7647ZM0.529412 39.2353H4.05882V42.7647H0.529412V39.2353ZM0.529412 35.7059H4.05882V39.2353H0.529412V35.7059ZM4.05882 39.2353H7.58823V42.7647H4.05882V39.2353ZM4.05882 35.7059H7.58823V39.2353H4.05882V35.7059ZM7.58823 35.7059H11.1176V39.2353H7.58823V35.7059ZM7.58823 39.2353H11.1176V42.7647H7.58823V39.2353ZM7.58823 42.7647H11.1176V46.2941H7.58823V42.7647ZM11.1176 42.7647H14.6471V46.2941H11.1176V42.7647ZM11.1176 46.2941H14.6471V49.8235H11.1176V46.2941ZM11.1176 49.8235H14.6471V53.3529H11.1176V49.8235ZM11.1176 53.3529H14.6471V56.8824H11.1176V53.3529ZM11.1176 39.2353H14.6471V42.7647H11.1176V39.2353ZM11.1176 35.7059H14.6471V39.2353H11.1176V35.7059ZM4.05882 42.7647H7.58823V46.2941H4.05882V42.7647ZM4.05882 46.2941H7.58823V49.8235H4.05882V46.2941ZM4.05882 49.8235H7.58823V53.3529H4.05882V49.8235ZM7.58823 53.3529H11.1176V56.8824H7.58823V53.3529ZM7.58823 49.8235H11.1176V53.3529H7.58823V49.8235ZM7.58823 46.2941H11.1176V49.8235H7.58823V46.2941ZM11.1176 32.1765H14.6471V35.7059H11.1176V32.1765ZM7.58823 32.1765H11.1176V35.7059H7.58823V32.1765ZM4.05882 32.1765H7.58823V35.7059H4.05882V32.1765ZM0.529412 32.1765H4.05882V35.7059H0.529412V32.1765ZM0.529412 28.6471H4.05882V32.1765H0.529412V28.6471ZM4.05882 28.6471H7.58823V32.1765H4.05882V28.6471ZM7.58823 28.6471H11.1176V32.1765H7.58823V28.6471ZM11.1176 28.6471H14.6471V32.1765H11.1176V28.6471ZM11.1176 25.1176H14.6471V28.6471H11.1176V25.1176ZM11.1176 21.5882H14.6471V25.1176H11.1176V21.5882ZM7.58823 21.5882H11.1176V25.1176H7.58823V21.5882ZM4.05882 21.5882H7.58823V25.1176H4.05882V21.5882ZM4.05882 25.1176H7.58823V28.6471H4.05882V25.1176ZM7.58823 25.1176H11.1176V28.6471H7.58823V25.1176ZM0.529412 25.1176H4.05882V28.6471H0.529412V25.1176ZM18.1765 35.7059H21.7059V39.2353H18.1765V35.7059ZM18.1765 32.1765H21.7059V35.7059H18.1765V32.1765ZM21.7059 14.5294H25.2353V18.0588H21.7059V14.5294ZM21.7059 18.0588H25.2353V21.5882H21.7059V18.0588ZM21.7059 21.5882H25.2353V25.1176H21.7059V21.5882ZM21.7059 25.1176H25.2353V28.6471H21.7059V25.1176ZM21.7059 28.6471H25.2353V32.1765H21.7059V28.6471ZM21.7059 32.1765H25.2353V35.7059H21.7059V32.1765ZM21.7059 35.7059H25.2353V39.2353H21.7059V35.7059ZM21.7059 39.2353H25.2353V42.7647H21.7059V39.2353ZM21.7059 42.7647H25.2353V46.2941H21.7059V42.7647ZM25.2353 42.7647H28.7647V46.2941H25.2353V42.7647ZM25.2353 39.2353H28.7647V42.7647H25.2353V39.2353ZM25.2353 35.7059H28.7647V39.2353H25.2353V35.7059ZM25.2353 32.1765H28.7647V35.7059H25.2353V32.1765ZM25.2353 28.6471H28.7647V32.1765H25.2353V28.6471ZM25.2353 25.1176H28.7647V28.6471H25.2353V25.1176ZM25.2353 21.5882H28.7647V25.1176H25.2353V21.5882ZM25.2353 46.2941H28.7647V49.8235H25.2353V46.2941ZM25.2353 49.8235H28.7647V53.3529H25.2353V49.8235ZM28.7647 49.8235H32.2941V53.3529H28.7647V49.8235ZM28.7647 46.2941H32.2941V49.8235H28.7647V46.2941ZM28.7647 42.7647H32.2941V46.2941H28.7647V42.7647ZM28.7647 39.2353H32.2941V42.7647H28.7647V39.2353ZM28.7647 35.7059H32.2941V39.2353H28.7647V35.7059ZM28.7647 32.1765H32.2941V35.7059H28.7647V32.1765ZM28.7647 28.6471H32.2941V32.1765H28.7647V28.6471ZM28.7647 53.3529H32.2941V56.8824H28.7647V53.3529ZM28.7647 56.8824H32.2941V60.4118H28.7647V56.8824ZM32.2941 56.8824H35.8235V60.4118H32.2941V56.8824ZM32.2941 53.3529H35.8235V56.8824H32.2941V53.3529ZM32.2941 49.8235H35.8235V53.3529H32.2941V49.8235ZM32.2941 46.2941H35.8235V49.8235H32.2941V46.2941ZM32.2941 42.7647H35.8235V46.2941H32.2941V42.7647ZM32.2941 39.2353H35.8235V42.7647H32.2941V39.2353ZM32.2941 35.7059H35.8235V39.2353H32.2941V35.7059ZM32.2941 60.4118H35.8235V63.9412H32.2941V60.4118ZM32.2941 63.9412H35.8235V67.4706H32.2941V63.9412ZM35.8235 63.9412H39.3529V67.4706H35.8235V63.9412ZM35.8235 60.4118H39.3529V63.9412H35.8235V60.4118ZM35.8235 56.8824H39.3529V60.4118H35.8235V56.8824ZM35.8235 53.3529H39.3529V56.8824H35.8235V53.3529ZM35.8235 49.8235H39.3529V53.3529H35.8235V49.8235ZM35.8235 46.2941H39.3529V49.8235H35.8235V46.2941ZM35.8235 42.7647H39.3529V46.2941H35.8235V42.7647ZM35.8235 67.4706H39.3529V71H35.8235V67.4706ZM0.529412 3.94118H4.05882V7.47059H0.529412V3.94118ZM0.529412 7.47059H4.05882V11H0.529412V7.47059ZM0.529412 11H4.05882V14.5294H0.529412V11ZM0.529412 14.5294H4.05882V18.0588H0.529412V14.5294ZM0.529412 18.0588H4.05882V21.5882H0.529412V18.0588ZM0.529412 21.5882H4.05882V25.1176H0.529412V21.5882ZM7.58823 18.0588H11.1176V21.5882H7.58823V18.0588ZM11.1176 18.0588H14.6471V21.5882H11.1176V18.0588ZM11.1176 14.5294H14.6471V18.0588H11.1176V14.5294ZM11.1176 11H14.6471V14.5294H11.1176V11ZM11.1176 7.47059H14.6471V11H11.1176V7.47059ZM7.58823 7.47059H11.1176V11H7.58823V7.47059ZM7.58823 3.94118H11.1176V7.47059H7.58823V3.94118ZM4.05882 3.94118H7.58823V7.47059H4.05882V3.94118ZM4.05882 7.47059H7.58823V11H4.05882V7.47059ZM4.05882 11H7.58823V14.5294H4.05882V11ZM4.05882 14.5294H7.58823V18.0588H4.05882V14.5294ZM4.05882 18.0588H7.58823V21.5882H4.05882V18.0588ZM7.58823 14.5294H11.1176V18.0588H7.58823V14.5294ZM7.58823 11H11.1176V14.5294H7.58823V11ZM11.1176 3.94118H14.6471V7.47059H11.1176V3.94118ZM39.3529 0.411769H42.8824V3.94118H39.3529V0.411769ZM42.8824 0.411769H46.4118V3.94118H42.8824V0.411769ZM46.4118 0.411769H49.9412V3.94118H46.4118V0.411769ZM49.9412 0.411769H53.4706V3.94118H49.9412V0.411769ZM42.8824 3.94118H46.4118V7.47059H42.8824V3.94118ZM39.3529 3.94118H42.8824V7.47059H39.3529V3.94118ZM39.3529 7.47059H42.8824V11H39.3529V7.47059ZM39.3529 11H42.8824V14.5294H39.3529V11ZM39.3529 14.5294H42.8824V18.0588H39.3529V14.5294ZM39.3529 18.0588H42.8824V21.5882H39.3529V18.0588ZM39.3529 21.5882H42.8824V25.1176H39.3529V21.5882ZM42.8824 21.5882H46.4118V25.1176H42.8824V21.5882ZM42.8824 25.1176H46.4118V28.6471H42.8824V25.1176ZM42.8824 28.6471H46.4118V32.1765H42.8824V28.6471ZM42.8824 32.1765H46.4118V35.7059H42.8824V32.1765ZM42.8824 35.7059H46.4118V39.2353H42.8824V35.7059ZM42.8824 39.2353H46.4118V42.7647H42.8824V39.2353ZM42.8824 42.7647H46.4118V46.2941H42.8824V42.7647ZM39.3529 32.1765H42.8824V35.7059H39.3529V32.1765ZM39.3529 28.6471H42.8824V32.1765H39.3529V28.6471ZM39.3529 25.1176H42.8824V28.6471H39.3529V25.1176ZM39.3529 35.7059H42.8824V39.2353H39.3529V35.7059ZM39.3529 39.2353H42.8824V42.7647H39.3529V39.2353ZM39.3529 42.7647H42.8824V46.2941H39.3529V42.7647ZM39.3529 46.2941H42.8824V49.8235H39.3529V46.2941ZM39.3529 49.8235H42.8824V53.3529H39.3529V49.8235ZM39.3529 53.3529H42.8824V56.8824H39.3529V53.3529ZM39.3529 56.8824H42.8824V60.4118H39.3529V56.8824ZM39.3529 60.4118H42.8824V63.9412H39.3529V60.4118ZM39.3529 63.9412H42.8824V67.4706H39.3529V63.9412ZM39.3529 67.4706H42.8824V71H39.3529V67.4706ZM42.8824 67.4706H46.4118V71H42.8824V67.4706ZM46.4118 67.4706H49.9412V71H46.4118V67.4706ZM49.9412 67.4706H53.4706V71H49.9412V67.4706ZM49.9412 63.9412H53.4706V67.4706H49.9412V63.9412ZM49.9412 60.4118H53.4706V63.9412H49.9412V60.4118ZM46.4118 60.4118H49.9412V63.9412H46.4118V60.4118ZM46.4118 56.8824H49.9412V60.4118H46.4118V56.8824ZM46.4118 53.3529H49.9412V56.8824H46.4118V53.3529ZM42.8824 49.8235H46.4118V53.3529H42.8824V49.8235ZM42.8824 53.3529H46.4118V56.8824H42.8824V53.3529ZM42.8824 56.8824H46.4118V60.4118H42.8824V56.8824ZM42.8824 60.4118H46.4118V63.9412H42.8824V60.4118ZM42.8824 63.9412H46.4118V67.4706H42.8824V63.9412ZM46.4118 63.9412H49.9412V67.4706H46.4118V63.9412ZM49.9412 56.8824H53.4706V60.4118H49.9412V56.8824ZM46.4118 49.8235H49.9412V53.3529H46.4118V49.8235ZM42.8824 46.2941H46.4118V49.8235H42.8824V46.2941ZM49.9412 3.94118H53.4706V7.47059H49.9412V3.94118ZM49.9412 7.47059H53.4706V11H49.9412V7.47059ZM49.9412 11H53.4706V14.5294H49.9412V11ZM49.9412 14.5294H53.4706V18.0588H49.9412V14.5294ZM49.9412 18.0588H53.4706V21.5882H49.9412V18.0588ZM49.9412 21.5882H53.4706V25.1176H49.9412V21.5882ZM49.9412 25.1176H53.4706V28.6471H49.9412V25.1176ZM49.9412 28.6471H53.4706V32.1765H49.9412V28.6471ZM49.9412 32.1765H53.4706V35.7059H49.9412V32.1765ZM49.9412 35.7059H53.4706V39.2353H49.9412V35.7059ZM49.9412 39.2353H53.4706V42.7647H49.9412V39.2353ZM49.9412 42.7647H53.4706V46.2941H49.9412V42.7647ZM49.9412 46.2941H53.4706V49.8235H49.9412V46.2941ZM49.9412 49.8235H53.4706V53.3529H49.9412V49.8235ZM49.9412 53.3529H53.4706V56.8824H49.9412V53.3529ZM46.4118 46.2941H49.9412V49.8235H46.4118V46.2941ZM46.4118 42.7647H49.9412V46.2941H46.4118V42.7647ZM46.4118 39.2353H49.9412V42.7647H46.4118V39.2353ZM46.4118 35.7059H49.9412V39.2353H46.4118V35.7059ZM46.4118 32.1765H49.9412V35.7059H46.4118V32.1765ZM46.4118 28.6471H49.9412V32.1765H46.4118V28.6471ZM46.4118 25.1176H49.9412V28.6471H46.4118V25.1176ZM46.4118 21.5882H49.9412V25.1176H46.4118V21.5882ZM46.4118 18.0588H49.9412V21.5882H46.4118V18.0588ZM46.4118 14.5294H49.9412V18.0588H46.4118V14.5294ZM46.4118 11H49.9412V14.5294H46.4118V11ZM46.4118 7.47059H49.9412V11H46.4118V7.47059ZM46.4118 3.94118H49.9412V7.47059H46.4118V3.94118ZM42.8824 7.47059H46.4118V11H42.8824V7.47059ZM42.8824 11H46.4118V14.5294H42.8824V11ZM42.8824 14.5294H46.4118V18.0588H42.8824V14.5294ZM42.8824 18.0588H46.4118V21.5882H42.8824V18.0588Z" fill="url(#paint0_linear_35_2)"/>
<defs>
<linearGradient id="paint0_linear_35_2" x1="27.2396" y1="-24" x2="6.15575" y2="80.0266" gradientUnits="userSpaceOnUse">
<stop stop-color="#F679CB"/>
<stop offset="1" stop-color="#FDB3D4"/>
</linearGradient>
</defs>
</svg>
