<svg width="367" height="75" viewBox="0 0 367 75" fill="none" xmlns="http://www.w3.org/2000/svg">
<path d="M0.529412 4.41177H4.05882V7.94118H0.529412V4.41177ZM4.05882 4.41177H7.58823V7.94118H4.05882V4.41177ZM7.58823 4.41177H11.1176V7.94118H7.58823V4.41177ZM11.1176 4.41177H14.6471V7.94118H11.1176V4.41177ZM14.6471 4.41177H18.1765V7.94118H14.6471V4.41177ZM14.6471 7.94118H18.1765V11.4706H14.6471V7.94118ZM14.6471 11.4706H18.1765V15H14.6471V11.4706ZM14.6471 15H18.1765V18.5294H14.6471V15ZM18.1765 11.4706H21.7059V15H18.1765V11.4706ZM18.1765 15H21.7059V18.5294H18.1765V15ZM18.1765 18.5294H21.7059V22.0588H18.1765V18.5294ZM18.1765 22.0588H21.7059V25.5882H18.1765V22.0588ZM18.1765 25.5882H21.7059V29.1176H18.1765V25.5882ZM18.1765 29.1176H21.7059V32.6471H18.1765V29.1176ZM18.1765 32.6471H21.7059V36.1765H18.1765V32.6471ZM14.6471 32.6471H18.1765V36.1765H14.6471V32.6471ZM14.6471 29.1176H18.1765V32.6471H14.6471V29.1176ZM14.6471 25.5882H18.1765V29.1176H14.6471V25.5882ZM14.6471 22.0588H18.1765V25.5882H14.6471V22.0588ZM14.6471 18.5294H18.1765V22.0588H14.6471V18.5294ZM0.529412 71.4706H4.05882V75H0.529412V71.4706ZM4.05882 71.4706H7.58823V75H4.05882V71.4706ZM7.58823 71.4706H11.1176V75H7.58823V71.4706ZM11.1176 67.9412H14.6471V71.4706H11.1176V67.9412ZM11.1176 64.4118H14.6471V67.9412H11.1176V64.4118ZM11.1176 60.8824H14.6471V64.4118H11.1176V60.8824ZM7.58823 60.8824H11.1176V64.4118H7.58823V60.8824ZM7.58823 64.4118H11.1176V67.9412H7.58823V64.4118ZM11.1176 71.4706H14.6471V75H11.1176V71.4706ZM7.58823 67.9412H11.1176V71.4706H7.58823V67.9412ZM4.05882 67.9412H7.58823V71.4706H4.05882V67.9412ZM0.529412 67.9412H4.05882V71.4706H0.529412V67.9412ZM0.529412 64.4118H4.05882V67.9412H0.529412V64.4118ZM0.529412 60.8824H4.05882V64.4118H0.529412V60.8824ZM4.05882 60.8824H7.58823V64.4118H4.05882V60.8824ZM4.05882 64.4118H7.58823V67.9412H4.05882V64.4118ZM4.05882 57.3529H7.58823V60.8824H4.05882V57.3529ZM0.529412 57.3529H4.05882V60.8824H0.529412V57.3529ZM0.529412 53.8235H4.05882V57.3529H0.529412V53.8235ZM0.529412 50.2941H4.05882V53.8235H0.529412V50.2941ZM0.529412 46.7647H4.05882V50.2941H0.529412V46.7647ZM0.529412 43.2353H4.05882V46.7647H0.529412V43.2353ZM0.529412 39.7059H4.05882V43.2353H0.529412V39.7059ZM4.05882 43.2353H7.58823V46.7647H4.05882V43.2353ZM4.05882 39.7059H7.58823V43.2353H4.05882V39.7059ZM7.58823 39.7059H11.1176V43.2353H7.58823V39.7059ZM7.58823 43.2353H11.1176V46.7647H7.58823V43.2353ZM7.58823 46.7647H11.1176V50.2941H7.58823V46.7647ZM11.1176 46.7647H14.6471V50.2941H11.1176V46.7647ZM11.1176 50.2941H14.6471V53.8235H11.1176V50.2941ZM11.1176 53.8235H14.6471V57.3529H11.1176V53.8235ZM11.1176 57.3529H14.6471V60.8824H11.1176V57.3529ZM11.1176 43.2353H14.6471V46.7647H11.1176V43.2353ZM11.1176 39.7059H14.6471V43.2353H11.1176V39.7059ZM4.05882 46.7647H7.58823V50.2941H4.05882V46.7647ZM4.05882 50.2941H7.58823V53.8235H4.05882V50.2941ZM4.05882 53.8235H7.58823V57.3529H4.05882V53.8235ZM7.58823 57.3529H11.1176V60.8824H7.58823V57.3529ZM7.58823 53.8235H11.1176V57.3529H7.58823V53.8235ZM7.58823 50.2941H11.1176V53.8235H7.58823V50.2941ZM11.1176 36.1765H14.6471V39.7059H11.1176V36.1765ZM7.58823 36.1765H11.1176V39.7059H7.58823V36.1765ZM4.05882 36.1765H7.58823V39.7059H4.05882V36.1765ZM0.529412 36.1765H4.05882V39.7059H0.529412V36.1765ZM0.529412 32.6471H4.05882V36.1765H0.529412V32.6471ZM4.05882 32.6471H7.58823V36.1765H4.05882V32.6471ZM7.58823 32.6471H11.1176V36.1765H7.58823V32.6471ZM11.1176 32.6471H14.6471V36.1765H11.1176V32.6471ZM11.1176 29.1176H14.6471V32.6471H11.1176V29.1176ZM11.1176 25.5882H14.6471V29.1176H11.1176V25.5882ZM7.58823 25.5882H11.1176V29.1176H7.58823V25.5882ZM4.05882 25.5882H7.58823V29.1176H4.05882V25.5882ZM4.05882 29.1176H7.58823V32.6471H4.05882V29.1176ZM7.58823 29.1176H11.1176V32.6471H7.58823V29.1176ZM0.529412 29.1176H4.05882V32.6471H0.529412V29.1176ZM18.1765 39.7059H21.7059V43.2353H18.1765V39.7059ZM18.1765 36.1765H21.7059V39.7059H18.1765V36.1765ZM21.7059 18.5294H25.2353V22.0588H21.7059V18.5294ZM21.7059 22.0588H25.2353V25.5882H21.7059V22.0588ZM21.7059 25.5882H25.2353V29.1176H21.7059V25.5882ZM21.7059 29.1176H25.2353V32.6471H21.7059V29.1176ZM21.7059 32.6471H25.2353V36.1765H21.7059V32.6471ZM21.7059 36.1765H25.2353V39.7059H21.7059V36.1765ZM21.7059 39.7059H25.2353V43.2353H21.7059V39.7059ZM21.7059 43.2353H25.2353V46.7647H21.7059V43.2353ZM21.7059 46.7647H25.2353V50.2941H21.7059V46.7647ZM25.2353 46.7647H28.7647V50.2941H25.2353V46.7647ZM25.2353 43.2353H28.7647V46.7647H25.2353V43.2353ZM25.2353 39.7059H28.7647V43.2353H25.2353V39.7059ZM25.2353 36.1765H28.7647V39.7059H25.2353V36.1765ZM25.2353 32.6471H28.7647V36.1765H25.2353V32.6471ZM25.2353 29.1176H28.7647V32.6471H25.2353V29.1176ZM25.2353 25.5882H28.7647V29.1176H25.2353V25.5882ZM25.2353 50.2941H28.7647V53.8235H25.2353V50.2941ZM25.2353 53.8235H28.7647V57.3529H25.2353V53.8235ZM28.7647 53.8235H32.2941V57.3529H28.7647V53.8235ZM28.7647 50.2941H32.2941V53.8235H28.7647V50.2941ZM28.7647 46.7647H32.2941V50.2941H28.7647V46.7647ZM28.7647 43.2353H32.2941V46.7647H28.7647V43.2353ZM28.7647 39.7059H32.2941V43.2353H28.7647V39.7059ZM28.7647 36.1765H32.2941V39.7059H28.7647V36.1765ZM28.7647 32.6471H32.2941V36.1765H28.7647V32.6471ZM28.7647 57.3529H32.2941V60.8824H28.7647V57.3529ZM28.7647 60.8824H32.2941V64.4118H28.7647V60.8824ZM32.2941 60.8824H35.8235V64.4118H32.2941V60.8824ZM32.2941 57.3529H35.8235V60.8824H32.2941V57.3529ZM32.2941 53.8235H35.8235V57.3529H32.2941V53.8235ZM32.2941 50.2941H35.8235V53.8235H32.2941V50.2941ZM32.2941 46.7647H35.8235V50.2941H32.2941V46.7647ZM32.2941 43.2353H35.8235V46.7647H32.2941V43.2353ZM32.2941 39.7059H35.8235V43.2353H32.2941V39.7059ZM32.2941 64.4118H35.8235V67.9412H32.2941V64.4118ZM32.2941 67.9412H35.8235V71.4706H32.2941V67.9412ZM35.8235 67.9412H39.3529V71.4706H35.8235V67.9412ZM35.8235 64.4118H39.3529V67.9412H35.8235V64.4118ZM35.8235 60.8824H39.3529V64.4118H35.8235V60.8824ZM35.8235 57.3529H39.3529V60.8824H35.8235V57.3529ZM35.8235 53.8235H39.3529V57.3529H35.8235V53.8235ZM35.8235 50.2941H39.3529V53.8235H35.8235V50.2941ZM35.8235 46.7647H39.3529V50.2941H35.8235V46.7647ZM35.8235 71.4706H39.3529V75H35.8235V71.4706ZM0.529412 7.94118H4.05882V11.4706H0.529412V7.94118ZM0.529412 11.4706H4.05882V15H0.529412V11.4706ZM0.529412 15H4.05882V18.5294H0.529412V15ZM0.529412 18.5294H4.05882V22.0588H0.529412V18.5294ZM0.529412 22.0588H4.05882V25.5882H0.529412V22.0588ZM0.529412 25.5882H4.05882V29.1176H0.529412V25.5882ZM7.58823 22.0588H11.1176V25.5882H7.58823V22.0588ZM11.1176 22.0588H14.6471V25.5882H11.1176V22.0588ZM11.1176 18.5294H14.6471V22.0588H11.1176V18.5294ZM11.1176 15H14.6471V18.5294H11.1176V15ZM11.1176 11.4706H14.6471V15H11.1176V11.4706ZM7.58823 11.4706H11.1176V15H7.58823V11.4706ZM7.58823 7.94118H11.1176V11.4706H7.58823V7.94118ZM4.05882 7.94118H7.58823V11.4706H4.05882V7.94118ZM4.05882 11.4706H7.58823V15H4.05882V11.4706ZM4.05882 15H7.58823V18.5294H4.05882V15ZM4.05882 18.5294H7.58823V22.0588H4.05882V18.5294ZM4.05882 22.0588H7.58823V25.5882H4.05882V22.0588ZM7.58823 18.5294H11.1176V22.0588H7.58823V18.5294ZM7.58823 15H11.1176V18.5294H7.58823V15ZM11.1176 7.94118H14.6471V11.4706H11.1176V7.94118ZM39.3529 4.41177H42.8824V7.94118H39.3529V4.41177ZM42.8824 4.41177H46.4118V7.94118H42.8824V4.41177ZM46.4118 4.41177H49.9412V7.94118H46.4118V4.41177ZM49.9412 4.41177H53.4706V7.94118H49.9412V4.41177ZM42.8824 7.94118H46.4118V11.4706H42.8824V7.94118ZM39.3529 7.94118H42.8824V11.4706H39.3529V7.94118ZM39.3529 11.4706H42.8824V15H39.3529V11.4706ZM39.3529 15H42.8824V18.5294H39.3529V15ZM39.3529 18.5294H42.8824V22.0588H39.3529V18.5294ZM39.3529 22.0588H42.8824V25.5882H39.3529V22.0588ZM39.3529 25.5882H42.8824V29.1176H39.3529V25.5882ZM42.8824 25.5882H46.4118V29.1176H42.8824V25.5882ZM42.8824 29.1176H46.4118V32.6471H42.8824V29.1176ZM42.8824 32.6471H46.4118V36.1765H42.8824V32.6471ZM42.8824 36.1765H46.4118V39.7059H42.8824V36.1765ZM42.8824 39.7059H46.4118V43.2353H42.8824V39.7059ZM42.8824 43.2353H46.4118V46.7647H42.8824V43.2353ZM42.8824 46.7647H46.4118V50.2941H42.8824V46.7647ZM39.3529 36.1765H42.8824V39.7059H39.3529V36.1765ZM39.3529 32.6471H42.8824V36.1765H39.3529V32.6471ZM39.3529 29.1176H42.8824V32.6471H39.3529V29.1176ZM39.3529 39.7059H42.8824V43.2353H39.3529V39.7059ZM39.3529 43.2353H42.8824V46.7647H39.3529V43.2353ZM39.3529 46.7647H42.8824V50.2941H39.3529V46.7647ZM39.3529 50.2941H42.8824V53.8235H39.3529V50.2941ZM39.3529 53.8235H42.8824V57.3529H39.3529V53.8235ZM39.3529 57.3529H42.8824V60.8824H39.3529V57.3529ZM39.3529 60.8824H42.8824V64.4118H39.3529V60.8824ZM39.3529 64.4118H42.8824V67.9412H39.3529V64.4118ZM39.3529 67.9412H42.8824V71.4706H39.3529V67.9412ZM39.3529 71.4706H42.8824V75H39.3529V71.4706ZM42.8824 71.4706H46.4118V75H42.8824V71.4706ZM46.4118 71.4706H49.9412V75H46.4118V71.4706ZM49.9412 71.4706H53.4706V75H49.9412V71.4706ZM49.9412 67.9412H53.4706V71.4706H49.9412V67.9412ZM49.9412 64.4118H53.4706V67.9412H49.9412V64.4118ZM46.4118 64.4118H49.9412V67.9412H46.4118V64.4118ZM46.4118 60.8824H49.9412V64.4118H46.4118V60.8824ZM46.4118 57.3529H49.9412V60.8824H46.4118V57.3529ZM42.8824 53.8235H46.4118V57.3529H42.8824V53.8235ZM42.8824 57.3529H46.4118V60.8824H42.8824V57.3529ZM42.8824 60.8824H46.4118V64.4118H42.8824V60.8824ZM42.8824 64.4118H46.4118V67.9412H42.8824V64.4118ZM42.8824 67.9412H46.4118V71.4706H42.8824V67.9412ZM46.4118 67.9412H49.9412V71.4706H46.4118V67.9412ZM49.9412 60.8824H53.4706V64.4118H49.9412V60.8824ZM46.4118 53.8235H49.9412V57.3529H46.4118V53.8235ZM42.8824 50.2941H46.4118V53.8235H42.8824V50.2941ZM49.9412 7.94118H53.4706V11.4706H49.9412V7.94118ZM49.9412 11.4706H53.4706V15H49.9412V11.4706ZM49.9412 15H53.4706V18.5294H49.9412V15ZM49.9412 18.5294H53.4706V22.0588H49.9412V18.5294ZM49.9412 22.0588H53.4706V25.5882H49.9412V22.0588ZM49.9412 25.5882H53.4706V29.1176H49.9412V25.5882ZM49.9412 29.1176H53.4706V32.6471H49.9412V29.1176ZM49.9412 32.6471H53.4706V36.1765H49.9412V32.6471ZM49.9412 36.1765H53.4706V39.7059H49.9412V36.1765ZM49.9412 39.7059H53.4706V43.2353H49.9412V39.7059ZM49.9412 43.2353H53.4706V46.7647H49.9412V43.2353ZM49.9412 46.7647H53.4706V50.2941H49.9412V46.7647ZM49.9412 50.2941H53.4706V53.8235H49.9412V50.2941ZM49.9412 53.8235H53.4706V57.3529H49.9412V53.8235ZM49.9412 57.3529H53.4706V60.8824H49.9412V57.3529ZM46.4118 50.2941H49.9412V53.8235H46.4118V50.2941ZM46.4118 46.7647H49.9412V50.2941H46.4118V46.7647ZM46.4118 43.2353H49.9412V46.7647H46.4118V43.2353ZM46.4118 39.7059H49.9412V43.2353H46.4118V39.7059ZM46.4118 36.1765H49.9412V39.7059H46.4118V36.1765ZM46.4118 32.6471H49.9412V36.1765H46.4118V32.6471ZM46.4118 29.1176H49.9412V32.6471H46.4118V29.1176ZM46.4118 25.5882H49.9412V29.1176H46.4118V25.5882ZM46.4118 22.0588H49.9412V25.5882H46.4118V22.0588ZM46.4118 18.5294H49.9412V22.0588H46.4118V18.5294ZM46.4118 15H49.9412V18.5294H46.4118V15ZM46.4118 11.4706H49.9412V15H46.4118V11.4706ZM46.4118 7.94118H49.9412V11.4706H46.4118V7.94118ZM42.8824 11.4706H46.4118V15H42.8824V11.4706ZM42.8824 15H46.4118V18.5294H42.8824V15ZM42.8824 18.5294H46.4118V22.0588H42.8824V18.5294ZM42.8824 22.0588H46.4118V25.5882H42.8824V22.0588ZM70.9627 22.0588H74.4921V25.5882H70.9627V22.0588ZM74.4921 22.0588H78.0215V25.5882H74.4921V22.0588ZM67.4333 22.0588H70.9627V25.5882H67.4333V22.0588ZM78.0215 22.0588H81.5509V25.5882H78.0215V22.0588ZM81.5509 22.0588H85.0803V25.5882H81.5509V22.0588ZM85.0803 22.0588H88.6097V25.5882H85.0803V22.0588ZM88.6097 22.0588H92.1392V25.5882H88.6097V22.0588ZM92.1392 25.5882H95.6686V29.1176H92.1392V25.5882ZM88.6097 25.5882H92.1392V29.1176H88.6097V25.5882ZM88.6097 29.1176H92.1392V32.6471H88.6097V29.1176ZM95.6686 25.5882H99.198V29.1176H95.6686V25.5882ZM95.6686 29.1176H99.198V32.6471H95.6686V29.1176ZM92.1392 29.1176H95.6686V32.6471H92.1392V29.1176ZM88.6097 32.6471H92.1392V36.1765H88.6097V32.6471ZM85.0803 32.6471H88.6097V36.1765H85.0803V32.6471ZM92.1392 32.6471H95.6686V36.1765H92.1392V32.6471ZM95.6686 32.6471H99.198V36.1765H95.6686V32.6471ZM99.198 32.6471H102.727V36.1765H99.198V32.6471ZM99.198 36.1765H102.727V39.7059H99.198V36.1765ZM99.198 39.7059H102.727V43.2353H99.198V39.7059ZM99.198 43.2353H102.727V46.7647H99.198V43.2353ZM99.198 46.7647H102.727V50.2941H99.198V46.7647ZM99.198 50.2941H102.727V53.8235H99.198V50.2941ZM99.198 53.8235H102.727V57.3529H99.198V53.8235ZM99.198 57.3529H102.727V60.8824H99.198V57.3529ZM99.198 60.8824H102.727V64.4118H99.198V60.8824ZM95.6686 60.8824H99.198V64.4118H95.6686V60.8824ZM95.6686 64.4118H99.198V67.9412H95.6686V64.4118ZM95.6686 67.9412H99.198V71.4706H95.6686V67.9412ZM92.1392 67.9412H95.6686V71.4706H92.1392V67.9412ZM88.6097 67.9412H92.1392V71.4706H88.6097V67.9412ZM85.0803 64.4118H88.6097V67.9412H85.0803V64.4118ZM85.0803 60.8824H88.6097V64.4118H85.0803V60.8824ZM88.6097 60.8824H92.1392V64.4118H88.6097V60.8824ZM88.6097 64.4118H92.1392V67.9412H88.6097V64.4118ZM92.1392 64.4118H95.6686V67.9412H92.1392V64.4118ZM92.1392 60.8824H95.6686V64.4118H92.1392V60.8824ZM92.1392 57.3529H95.6686V60.8824H92.1392V57.3529ZM88.6097 57.3529H92.1392V60.8824H88.6097V57.3529ZM88.6097 53.8235H92.1392V57.3529H88.6097V53.8235ZM88.6097 50.2941H92.1392V53.8235H88.6097V50.2941ZM88.6097 46.7647H92.1392V50.2941H88.6097V46.7647ZM88.6097 43.2353H92.1392V46.7647H88.6097V43.2353ZM88.6097 39.7059H92.1392V43.2353H88.6097V39.7059ZM88.6097 36.1765H92.1392V39.7059H88.6097V36.1765ZM92.1392 36.1765H95.6686V39.7059H92.1392V36.1765ZM92.1392 39.7059H95.6686V43.2353H92.1392V39.7059ZM92.1392 43.2353H95.6686V46.7647H92.1392V43.2353ZM92.1392 46.7647H95.6686V50.2941H92.1392V46.7647ZM92.1392 50.2941H95.6686V53.8235H92.1392V50.2941ZM92.1392 53.8235H95.6686V57.3529H92.1392V53.8235ZM95.6686 57.3529H99.198V60.8824H95.6686V57.3529ZM95.6686 53.8235H99.198V57.3529H95.6686V53.8235ZM95.6686 50.2941H99.198V53.8235H95.6686V50.2941ZM95.6686 46.7647H99.198V50.2941H95.6686V46.7647ZM95.6686 43.2353H99.198V46.7647H95.6686V43.2353ZM95.6686 39.7059H99.198V43.2353H95.6686V39.7059ZM95.6686 36.1765H99.198V39.7059H95.6686V36.1765ZM85.0803 67.9412H88.6097V71.4706H85.0803V67.9412ZM85.0803 71.4706H88.6097V75H85.0803V71.4706ZM88.6097 71.4706H92.1392V75H88.6097V71.4706ZM81.5509 71.4706H85.0803V75H81.5509V71.4706ZM78.0215 71.4706H81.5509V75H78.0215V71.4706ZM74.4921 71.4706H78.0215V75H74.4921V71.4706ZM70.9627 71.4706H74.4921V75H70.9627V71.4706ZM67.4333 71.4706H70.9627V75H67.4333V71.4706ZM67.4333 67.9412H70.9627V71.4706H67.4333V67.9412ZM63.9039 67.9412H67.4333V71.4706H63.9039V67.9412ZM60.3744 67.9412H63.9039V71.4706H60.3744V67.9412ZM60.3744 64.4118H63.9039V67.9412H60.3744V64.4118ZM56.845 60.8824H60.3744V64.4118H56.845V60.8824ZM60.3744 60.8824H63.9039V64.4118H60.3744V60.8824ZM56.845 57.3529H60.3744V60.8824H56.845V57.3529ZM56.845 53.8235H60.3744V57.3529H56.845V53.8235ZM56.845 50.2941H60.3744V53.8235H56.845V50.2941ZM56.845 46.7647H60.3744V50.2941H56.845V46.7647ZM56.845 43.2353H60.3744V46.7647H56.845V43.2353ZM56.845 39.7059H60.3744V43.2353H56.845V39.7059ZM60.3744 39.7059H63.9039V43.2353H60.3744V39.7059ZM60.3744 36.1765H63.9039V39.7059H60.3744V36.1765ZM56.845 36.1765H60.3744V39.7059H56.845V36.1765ZM56.845 32.6471H60.3744V36.1765H56.845V32.6471ZM60.3744 32.6471H63.9039V36.1765H60.3744V32.6471ZM60.3744 29.1176H63.9039V32.6471H60.3744V29.1176ZM60.3744 25.5882H63.9039V29.1176H60.3744V25.5882ZM63.9039 25.5882H67.4333V29.1176H63.9039V25.5882ZM67.4333 25.5882H70.9627V29.1176H67.4333V25.5882ZM70.9627 25.5882H74.4921V29.1176H70.9627V25.5882ZM70.9627 29.1176H74.4921V32.6471H70.9627V29.1176ZM70.9627 32.6471H74.4921V36.1765H70.9627V32.6471ZM67.4333 32.6471H70.9627V36.1765H67.4333V32.6471ZM63.9039 32.6471H67.4333V36.1765H63.9039V32.6471ZM67.4333 36.1765H70.9627V39.7059H67.4333V36.1765ZM67.4333 39.7059H70.9627V43.2353H67.4333V39.7059ZM67.4333 43.2353H70.9627V46.7647H67.4333V43.2353ZM67.4333 46.7647H70.9627V50.2941H67.4333V46.7647ZM67.4333 50.2941H70.9627V53.8235H67.4333V50.2941ZM67.4333 53.8235H70.9627V57.3529H67.4333V53.8235ZM67.4333 57.3529H70.9627V60.8824H67.4333V57.3529ZM67.4333 60.8824H70.9627V64.4118H67.4333V60.8824ZM70.9627 60.8824H74.4921V64.4118H70.9627V60.8824ZM70.9627 64.4118H74.4921V67.9412H70.9627V64.4118ZM74.4921 64.4118H78.0215V67.9412H74.4921V64.4118ZM78.0215 64.4118H81.5509V67.9412H78.0215V64.4118ZM81.5509 64.4118H85.0803V67.9412H81.5509V64.4118ZM81.5509 67.9412H85.0803V71.4706H81.5509V67.9412ZM78.0215 67.9412H81.5509V71.4706H78.0215V67.9412ZM74.4921 67.9412H78.0215V71.4706H74.4921V67.9412ZM70.9627 67.9412H74.4921V71.4706H70.9627V67.9412ZM67.4333 64.4118H70.9627V67.9412H67.4333V64.4118ZM63.9039 64.4118H67.4333V67.9412H63.9039V64.4118ZM63.9039 60.8824H67.4333V64.4118H63.9039V60.8824ZM63.9039 57.3529H67.4333V60.8824H63.9039V57.3529ZM63.9039 53.8235H67.4333V57.3529H63.9039V53.8235ZM60.3744 53.8235H63.9039V57.3529H60.3744V53.8235ZM60.3744 57.3529H63.9039V60.8824H60.3744V57.3529ZM60.3744 50.2941H63.9039V53.8235H60.3744V50.2941ZM60.3744 46.7647H63.9039V50.2941H60.3744V46.7647ZM60.3744 43.2353H63.9039V46.7647H60.3744V43.2353ZM63.9039 43.2353H67.4333V46.7647H63.9039V43.2353ZM63.9039 46.7647H67.4333V50.2941H63.9039V46.7647ZM63.9039 50.2941H67.4333V53.8235H63.9039V50.2941ZM63.9039 39.7059H67.4333V43.2353H63.9039V39.7059ZM63.9039 36.1765H67.4333V39.7059H63.9039V36.1765ZM63.9039 29.1176H67.4333V32.6471H63.9039V29.1176ZM67.4333 29.1176H70.9627V32.6471H67.4333V29.1176ZM74.4921 25.5882H78.0215V29.1176H74.4921V25.5882ZM78.0215 25.5882H81.5509V29.1176H78.0215V25.5882ZM81.5509 25.5882H85.0803V29.1176H81.5509V25.5882ZM85.0803 25.5882H88.6097V29.1176H85.0803V25.5882ZM85.0803 29.1176H88.6097V32.6471H85.0803V29.1176ZM81.5509 29.1176H85.0803V32.6471H81.5509V29.1176ZM78.0215 29.1176H81.5509V32.6471H78.0215V29.1176ZM74.4921 29.1176H78.0215V32.6471H74.4921V29.1176ZM148.482 22.0588H152.012V25.5882H148.482V22.0588ZM144.953 22.0588H148.482V25.5882H144.953V22.0588ZM141.424 22.0588H144.953V25.5882H141.424V22.0588ZM137.894 22.0588H141.424V25.5882H137.894V22.0588ZM137.894 25.5882H141.424V29.1176H137.894V25.5882ZM137.894 29.1176H141.424V32.6471H137.894V29.1176ZM137.894 32.6471H141.424V36.1765H137.894V32.6471ZM137.894 36.1765H141.424V39.7059H137.894V36.1765ZM137.894 39.7059H141.424V43.2353H137.894V39.7059ZM137.894 43.2353H141.424V46.7647H137.894V43.2353ZM137.894 46.7647H141.424V50.2941H137.894V46.7647ZM137.894 50.2941H141.424V53.8235H137.894V50.2941ZM141.424 50.2941H144.953V53.8235H141.424V50.2941ZM144.953 50.2941H148.482V53.8235H144.953V50.2941ZM148.482 50.2941H152.012V53.8235H148.482V50.2941ZM148.482 46.7647H152.012V50.2941H148.482V46.7647ZM148.482 43.2353H152.012V46.7647H148.482V43.2353ZM148.482 39.7059H152.012V43.2353H148.482V39.7059ZM144.953 39.7059H148.482V43.2353H144.953V39.7059ZM144.953 36.1765H148.482V39.7059H144.953V36.1765ZM144.953 32.6471H148.482V36.1765H144.953V32.6471ZM144.953 29.1176H148.482V32.6471H144.953V29.1176ZM144.953 25.5882H148.482V29.1176H144.953V25.5882ZM148.482 25.5882H152.012V29.1176H148.482V25.5882ZM148.482 29.1176H152.012V32.6471H148.482V29.1176ZM148.482 32.6471H152.012V36.1765H148.482V32.6471ZM148.482 36.1765H152.012V39.7059H148.482V36.1765ZM141.424 32.6471H144.953V36.1765H141.424V32.6471ZM141.424 29.1176H144.953V32.6471H141.424V29.1176ZM141.424 25.5882H144.953V29.1176H141.424V25.5882ZM141.424 36.1765H144.953V39.7059H141.424V36.1765ZM141.424 39.7059H144.953V43.2353H141.424V39.7059ZM141.424 43.2353H144.953V46.7647H141.424V43.2353ZM141.424 46.7647H144.953V50.2941H141.424V46.7647ZM144.953 46.7647H148.482V50.2941H144.953V46.7647ZM144.953 43.2353H148.482V46.7647H144.953V43.2353ZM148.482 53.8235H152.012V57.3529H148.482V53.8235ZM144.953 53.8235H148.482V57.3529H144.953V53.8235ZM141.424 53.8235H144.953V57.3529H141.424V53.8235ZM137.894 53.8235H141.424V57.3529H137.894V53.8235ZM134.365 53.8235H137.894V57.3529H134.365V53.8235ZM144.953 57.3529H148.482V60.8824H144.953V57.3529ZM141.424 57.3529H144.953V60.8824H141.424V57.3529ZM137.894 57.3529H141.424V60.8824H137.894V57.3529ZM134.365 57.3529H137.894V60.8824H134.365V57.3529ZM130.835 57.3529H134.365V60.8824H130.835V57.3529ZM130.835 60.8824H134.365V64.4118H130.835V60.8824ZM134.365 60.8824H137.894V64.4118H134.365V60.8824ZM137.894 60.8824H141.424V64.4118H137.894V60.8824ZM141.424 60.8824H144.953V64.4118H141.424V60.8824ZM137.894 64.4118H141.424V67.9412H137.894V64.4118ZM134.365 64.4118H137.894V67.9412H134.365V64.4118ZM130.835 64.4118H134.365V67.9412H130.835V64.4118ZM130.835 67.9412H134.365V71.4706H130.835V67.9412ZM134.365 67.9412H137.894V71.4706H134.365V67.9412ZM130.835 71.4706H134.365V75H130.835V71.4706ZM127.306 71.4706H130.835V75H127.306V71.4706ZM123.776 71.4706H127.306V75H123.776V71.4706ZM123.776 67.9412H127.306V71.4706H123.776V67.9412ZM127.306 67.9412H130.835V71.4706H127.306V67.9412ZM127.306 64.4118H130.835V67.9412H127.306V64.4118ZM127.306 60.8824H130.835V64.4118H127.306V60.8824ZM123.776 60.8824H127.306V64.4118H123.776V60.8824ZM123.776 57.3529H127.306V60.8824H123.776V57.3529ZM120.247 60.8824H123.776V64.4118H120.247V60.8824ZM120.247 57.3529H123.776V60.8824H120.247V57.3529ZM120.247 53.8235H123.776V57.3529H120.247V53.8235ZM116.718 53.8235H120.247V57.3529H116.718V53.8235ZM113.188 53.8235H116.718V57.3529H113.188V53.8235ZM109.659 53.8235H113.188V57.3529H109.659V53.8235ZM109.659 57.3529H113.188V60.8824H109.659V57.3529ZM113.188 57.3529H116.718V60.8824H113.188V57.3529ZM116.718 57.3529H120.247V60.8824H116.718V57.3529ZM116.718 60.8824H120.247V64.4118H116.718V60.8824ZM113.188 60.8824H116.718V64.4118H113.188V60.8824ZM120.247 64.4118H123.776V67.9412H120.247V64.4118ZM116.718 64.4118H120.247V67.9412H116.718V64.4118ZM123.776 64.4118H127.306V67.9412H123.776V64.4118ZM120.247 67.9412H123.776V71.4706H120.247V67.9412ZM106.129 53.8235H109.659V57.3529H106.129V53.8235ZM106.129 50.2941H109.659V53.8235H106.129V50.2941ZM106.129 46.7647H109.659V50.2941H106.129V46.7647ZM106.129 43.2353H109.659V46.7647H106.129V43.2353ZM106.129 39.7059H109.659V43.2353H106.129V39.7059ZM109.659 36.1765H113.188V39.7059H109.659V36.1765ZM109.659 32.6471H113.188V36.1765H109.659V32.6471ZM109.659 29.1176H113.188V32.6471H109.659V29.1176ZM109.659 25.5882H113.188V29.1176H109.659V25.5882ZM109.659 22.0588H113.188V25.5882H109.659V22.0588ZM106.129 25.5882H109.659V29.1176H106.129V25.5882ZM106.129 22.0588H109.659V25.5882H106.129V22.0588ZM106.129 29.1176H109.659V32.6471H106.129V29.1176ZM106.129 32.6471H109.659V36.1765H106.129V32.6471ZM106.129 36.1765H109.659V39.7059H106.129V36.1765ZM109.659 46.7647H113.188V50.2941H109.659V46.7647ZM109.659 50.2941H113.188V53.8235H109.659V50.2941ZM109.659 43.2353H113.188V46.7647H109.659V43.2353ZM109.659 39.7059H113.188V43.2353H109.659V39.7059ZM113.188 50.2941H116.718V53.8235H113.188V50.2941ZM113.188 46.7647H116.718V50.2941H113.188V46.7647ZM116.718 46.7647H120.247V50.2941H116.718V46.7647ZM116.718 50.2941H120.247V53.8235H116.718V50.2941ZM116.718 43.2353H120.247V46.7647H116.718V43.2353ZM116.718 39.7059H120.247V43.2353H116.718V39.7059ZM116.718 36.1765H120.247V39.7059H116.718V36.1765ZM116.718 32.6471H120.247V36.1765H116.718V32.6471ZM116.718 29.1176H120.247V32.6471H116.718V29.1176ZM116.718 25.5882H120.247V29.1176H116.718V25.5882ZM113.188 25.5882H116.718V29.1176H113.188V25.5882ZM113.188 22.0588H116.718V25.5882H113.188V22.0588ZM116.718 22.0588H120.247V25.5882H116.718V22.0588ZM113.188 29.1176H116.718V32.6471H113.188V29.1176ZM113.188 32.6471H116.718V36.1765H113.188V32.6471ZM113.188 36.1765H116.718V39.7059H113.188V36.1765ZM113.188 39.7059H116.718V43.2353H113.188V39.7059ZM113.188 43.2353H116.718V46.7647H113.188V43.2353ZM183.649 75H180.12V71.4706H183.649V75ZM190.708 75H187.178V71.4706H190.708V75ZM180.12 75H176.59V71.4706H180.12V75ZM176.59 75H173.061V71.4706H176.59V75ZM173.061 75H169.531V71.4706H173.061V75ZM169.531 75H166.002V71.4706H169.531V75ZM166.002 71.4706H162.473V67.9412H166.002V71.4706ZM169.531 71.4706H166.002V67.9412H169.531V71.4706ZM169.531 67.9412H166.002V64.4118H169.531V67.9412ZM162.473 71.4706H158.943V67.9412H162.473V71.4706ZM162.473 67.9412H158.943V64.4118H162.473V67.9412ZM166.002 67.9412H162.473V64.4118H166.002V67.9412ZM169.531 64.4118H166.002V60.8824H169.531V64.4118ZM173.061 64.4118H169.531V60.8824H173.061V64.4118ZM166.002 64.4118H162.473V60.8824H166.002V64.4118ZM162.473 64.4118H158.943V60.8824H162.473V64.4118ZM158.943 64.4118H155.414V60.8824H158.943V64.4118ZM158.943 60.8824H155.414V57.3529H158.943V60.8824ZM158.943 39.7059H155.414V36.1765H158.943V39.7059ZM158.943 36.1765H155.414V32.6471H158.943V36.1765ZM162.473 36.1765H158.943V32.6471H162.473V36.1765ZM162.473 32.6471H158.943V29.1176H162.473V32.6471ZM162.473 29.1176H158.943V25.5882H162.473V29.1176ZM166.002 29.1176H162.473V25.5882H166.002V29.1176ZM169.531 29.1176H166.002V25.5882H169.531V29.1176ZM173.061 32.6471H169.531V29.1176H173.061V32.6471ZM173.061 36.1765H169.531V32.6471H173.061V36.1765ZM169.531 36.1765H166.002V32.6471H169.531V36.1765ZM169.531 32.6471H166.002V29.1176H169.531V32.6471ZM166.002 32.6471H162.473V29.1176H166.002V32.6471ZM166.002 36.1765H162.473V32.6471H166.002V36.1765ZM166.002 39.7059H162.473V36.1765H166.002V39.7059ZM169.531 39.7059H166.002V36.1765H169.531V39.7059ZM169.531 60.8824H166.002V57.3529H169.531V60.8824ZM166.002 60.8824H162.473V57.3529H166.002V60.8824ZM162.473 39.7059H158.943V36.1765H162.473V39.7059ZM162.473 60.8824H158.943V57.3529H162.473V60.8824ZM173.061 29.1176H169.531V25.5882H173.061V29.1176ZM173.061 25.5882H169.531V22.0588H173.061V25.5882ZM169.531 25.5882H166.002V22.0588H169.531V25.5882ZM176.59 25.5882H173.061V22.0588H176.59V25.5882ZM180.12 25.5882H176.59V22.0588H180.12V25.5882ZM183.649 25.5882H180.12V22.0588H183.649V25.5882ZM187.178 25.5882H183.649V22.0588H187.178V25.5882ZM190.708 25.5882H187.178V22.0588H190.708V25.5882ZM190.708 29.1176H187.178V25.5882H190.708V29.1176ZM194.237 29.1176H190.708V25.5882H194.237V29.1176ZM197.767 29.1176H194.237V25.5882H197.767V29.1176ZM197.767 32.6471H194.237V29.1176H197.767V32.6471ZM201.296 36.1765H197.767V32.6471H201.296V36.1765ZM197.767 36.1765H194.237V32.6471H197.767V36.1765ZM201.296 39.7059H197.767V36.1765H201.296V39.7059ZM201.296 43.2353H197.767V39.7059H201.296V43.2353ZM201.296 46.7647H197.767V43.2353H201.296V46.7647ZM201.296 50.2941H197.767V46.7647H201.296V50.2941ZM201.296 53.8235H197.767V50.2941H201.296V53.8235ZM201.296 57.3529H197.767V53.8235H201.296V57.3529ZM197.767 57.3529H194.237V53.8235H197.767V57.3529ZM197.767 60.8824H194.237V57.3529H197.767V60.8824ZM201.296 60.8824H197.767V57.3529H201.296V60.8824ZM201.296 64.4118H197.767V60.8824H201.296V64.4118ZM197.767 64.4118H194.237V60.8824H197.767V64.4118ZM197.767 67.9412H194.237V64.4118H197.767V67.9412ZM197.767 71.4706H194.237V67.9412H197.767V71.4706ZM194.237 71.4706H190.708V67.9412H194.237V71.4706ZM190.708 71.4706H187.178V67.9412H190.708V71.4706ZM187.178 71.4706H183.649V67.9412H187.178V71.4706ZM187.178 67.9412H183.649V64.4118H187.178V67.9412ZM190.708 64.4118H187.178V60.8824H190.708V64.4118ZM194.237 64.4118H190.708V60.8824H194.237V64.4118ZM190.708 60.8824H187.178V57.3529H190.708V60.8824ZM190.708 57.3529H187.178V53.8235H190.708V57.3529ZM190.708 53.8235H187.178V50.2941H190.708V53.8235ZM190.708 50.2941H187.178V46.7647H190.708V50.2941ZM190.708 46.7647H187.178V43.2353H190.708V46.7647ZM190.708 43.2353H187.178V39.7059H190.708V43.2353ZM190.708 39.7059H187.178V36.1765H190.708V39.7059ZM190.708 36.1765H187.178V32.6471H190.708V36.1765ZM187.178 36.1765H183.649V32.6471H187.178V36.1765ZM187.178 32.6471H183.649V29.1176H187.178V32.6471ZM183.649 32.6471H180.12V29.1176H183.649V32.6471ZM180.12 32.6471H176.59V29.1176H180.12V32.6471ZM176.59 32.6471H173.061V29.1176H176.59V32.6471ZM176.59 29.1176H173.061V25.5882H176.59V29.1176ZM180.12 29.1176H176.59V25.5882H180.12V29.1176ZM183.649 29.1176H180.12V25.5882H183.649V29.1176ZM187.178 29.1176H183.649V25.5882H187.178V29.1176ZM190.708 32.6471H187.178V29.1176H190.708V32.6471ZM194.237 32.6471H190.708V29.1176H194.237V32.6471ZM194.237 36.1765H190.708V32.6471H194.237V36.1765ZM194.237 39.7059H190.708V36.1765H194.237V39.7059ZM194.237 43.2353H190.708V39.7059H194.237V43.2353ZM197.767 43.2353H194.237V39.7059H197.767V43.2353ZM197.767 39.7059H194.237V36.1765H197.767V39.7059ZM197.767 46.7647H194.237V43.2353H197.767V46.7647ZM197.767 50.2941H194.237V46.7647H197.767V50.2941ZM197.767 53.8235H194.237V50.2941H197.767V53.8235ZM194.237 53.8235H190.708V50.2941H194.237V53.8235ZM194.237 50.2941H190.708V46.7647H194.237V50.2941ZM194.237 46.7647H190.708V43.2353H194.237V46.7647ZM194.237 57.3529H190.708V53.8235H194.237V57.3529ZM194.237 60.8824H190.708V57.3529H194.237V60.8824ZM194.237 67.9412H190.708V64.4118H194.237V67.9412ZM190.708 67.9412H187.178V64.4118H190.708V67.9412ZM183.649 71.4706H180.12V67.9412H183.649V71.4706ZM180.12 71.4706H176.59V67.9412H180.12V71.4706ZM176.59 71.4706H173.061V67.9412H176.59V71.4706ZM173.061 71.4706H169.531V67.9412H173.061V71.4706ZM173.061 67.9412H169.531V64.4118H173.061V67.9412ZM176.59 67.9412H173.061V64.4118H176.59V67.9412ZM180.12 67.9412H176.59V64.4118H180.12V67.9412ZM183.649 67.9412H180.12V64.4118H183.649V67.9412ZM162.473 57.3529H158.943V53.8235H162.473V57.3529ZM166.002 57.3529H162.473V53.8235H166.002V57.3529ZM169.531 57.3529H166.002V53.8235H169.531V57.3529ZM162.473 53.8235H158.943V50.2941H162.473V53.8235ZM166.002 53.8235H162.473V50.2941H166.002V53.8235ZM169.531 53.8235H166.002V50.2941H169.531V53.8235ZM173.061 53.8235H169.531V50.2941H173.061V53.8235ZM176.59 53.8235H173.061V50.2941H176.59V53.8235ZM180.12 53.8235H176.59V50.2941H180.12V53.8235ZM183.649 53.8235H180.12V50.2941H183.649V53.8235ZM187.178 53.8235H183.649V50.2941H187.178V53.8235ZM187.178 50.2941H183.649V46.7647H187.178V50.2941ZM183.649 50.2941H180.12V46.7647H183.649V50.2941ZM180.12 50.2941H176.59V46.7647H180.12V50.2941ZM176.59 50.2941H173.061V46.7647H176.59V50.2941ZM173.061 50.2941H169.531V46.7647H173.061V50.2941ZM169.531 50.2941H166.002V46.7647H169.531V50.2941ZM197.767 64.4118H201.296V67.9412H197.767V64.4118ZM197.767 67.9412H201.296V71.4706H197.767V67.9412ZM197.767 71.4706H201.296V75H197.767V71.4706ZM194.237 71.4706H197.767V75H194.237V71.4706ZM190.708 71.4706H194.237V75H190.708V71.4706ZM169.531 53.8235H173.061V57.3529H169.531V53.8235ZM247.051 39.7059H250.581V43.2353H247.051V39.7059ZM247.051 36.1765H250.581V39.7059H247.051V36.1765ZM247.051 32.6471H250.581V36.1765H247.051V32.6471ZM247.051 29.1176H250.581V32.6471H247.051V29.1176ZM247.051 25.5882H250.581V29.1176H247.051V25.5882ZM247.051 22.0588H250.581V25.5882H247.051V22.0588ZM247.051 18.5294H250.581V22.0588H247.051V18.5294ZM247.051 15H250.581V18.5294H247.051V15ZM243.522 15H247.051V18.5294H243.522V15ZM243.522 11.4706H247.051V15H243.522V11.4706ZM243.522 7.94118H247.051V11.4706H243.522V7.94118ZM239.992 7.94118H243.522V11.4706H239.992V7.94118ZM239.992 11.4706H243.522V15H239.992V11.4706ZM239.992 15H243.522V18.5294H239.992V15ZM239.992 18.5294H243.522V22.0588H239.992V18.5294ZM239.992 22.0588H243.522V25.5882H239.992V22.0588ZM239.992 25.5882H243.522V29.1176H239.992V25.5882ZM239.992 29.1176H243.522V32.6471H239.992V29.1176ZM239.992 32.6471H243.522V36.1765H239.992V32.6471ZM239.992 36.1765H243.522V39.7059H239.992V36.1765ZM239.992 39.7059H243.522V43.2353H239.992V39.7059ZM239.992 43.2353H243.522V46.7647H239.992V43.2353ZM239.992 46.7647H243.522V50.2941H239.992V46.7647ZM243.522 43.2353H247.051V46.7647H243.522V43.2353ZM243.522 39.7059H247.051V43.2353H243.522V39.7059ZM243.522 36.1765H247.051V39.7059H243.522V36.1765ZM243.522 32.6471H247.051V36.1765H243.522V32.6471ZM243.522 29.1176H247.051V32.6471H243.522V29.1176ZM243.522 25.5882H247.051V29.1176H243.522V25.5882ZM243.522 22.0588H247.051V25.5882H243.522V22.0588ZM243.522 18.5294H247.051V22.0588H243.522V18.5294ZM236.463 18.5294H239.992V22.0588H236.463V18.5294ZM232.933 18.5294H236.463V22.0588H232.933V18.5294ZM236.463 15H239.992V18.5294H236.463V15ZM232.933 15H236.463V18.5294H232.933V15ZM229.404 15H232.933V18.5294H229.404V15ZM225.875 15H229.404V18.5294H225.875V15ZM222.345 15H225.875V18.5294H222.345V15ZM218.816 15H222.345V18.5294H218.816V15ZM215.286 15H218.816V18.5294H215.286V15ZM215.286 18.5294H218.816V22.0588H215.286V18.5294ZM215.286 22.0588H218.816V25.5882H215.286V22.0588ZM215.286 25.5882H218.816V29.1176H215.286V25.5882ZM215.286 29.1176H218.816V32.6471H215.286V29.1176ZM215.286 32.6471H218.816V36.1765H215.286V32.6471ZM215.286 36.1765H218.816V39.7059H215.286V36.1765ZM215.286 39.7059H218.816V43.2353H215.286V39.7059ZM218.816 39.7059H222.345V43.2353H218.816V39.7059ZM218.816 43.2353H222.345V46.7647H218.816V43.2353ZM222.345 43.2353H225.875V46.7647H222.345V43.2353ZM225.875 43.2353H229.404V46.7647H225.875V43.2353ZM229.404 43.2353H232.933V46.7647H229.404V43.2353ZM232.933 43.2353H236.463V46.7647H232.933V43.2353ZM232.933 39.7059H236.463V43.2353H232.933V39.7059ZM229.404 39.7059H232.933V43.2353H229.404V39.7059ZM225.875 39.7059H229.404V43.2353H225.875V39.7059ZM222.345 39.7059H225.875V43.2353H222.345V39.7059ZM236.463 39.7059H239.992V43.2353H236.463V39.7059ZM236.463 36.1765H239.992V39.7059H236.463V36.1765ZM232.933 36.1765H236.463V39.7059H232.933V36.1765ZM236.463 32.6471H239.992V36.1765H236.463V32.6471ZM236.463 22.0588H239.992V25.5882H236.463V22.0588ZM236.463 25.5882H239.992V29.1176H236.463V25.5882ZM236.463 29.1176H239.992V32.6471H236.463V29.1176ZM236.463 43.2353H239.992V46.7647H236.463V43.2353ZM236.463 46.7647H239.992V50.2941H236.463V46.7647ZM236.463 50.2941H239.992V53.8235H236.463V50.2941ZM232.933 50.2941H236.463V53.8235H232.933V50.2941ZM229.404 50.2941H232.933V53.8235H229.404V50.2941ZM225.875 50.2941H229.404V53.8235H225.875V50.2941ZM222.345 50.2941H225.875V53.8235H222.345V50.2941ZM222.345 46.7647H225.875V50.2941H222.345V46.7647ZM218.816 46.7647H222.345V50.2941H218.816V46.7647ZM218.816 50.2941H222.345V53.8235H218.816V50.2941ZM225.875 46.7647H229.404V50.2941H225.875V46.7647ZM229.404 46.7647H232.933V50.2941H229.404V46.7647ZM232.933 46.7647H236.463V50.2941H232.933V46.7647ZM236.463 4.41177H239.992V7.94118H236.463V4.41177ZM236.463 7.94118H239.992V11.4706H236.463V7.94118ZM236.463 11.4706H239.992V15H236.463V11.4706ZM232.933 11.4706H236.463V15H232.933V11.4706ZM232.933 7.94118H236.463V11.4706H232.933V7.94118ZM232.933 4.41177H236.463V7.94118H232.933V4.41177ZM229.404 4.41177H232.933V7.94118H229.404V4.41177ZM225.875 4.41177H229.404V7.94118H225.875V4.41177ZM222.345 4.41177H225.875V7.94118H222.345V4.41177ZM218.816 4.41177H222.345V7.94118H218.816V4.41177ZM215.286 4.41177H218.816V7.94118H215.286V4.41177ZM211.757 4.41177H215.286V7.94118H211.757V4.41177ZM208.228 4.41177H211.757V7.94118H208.228V4.41177ZM204.698 4.41177H208.228V7.94118H204.698V4.41177ZM204.698 7.94118H208.228V11.4706H204.698V7.94118ZM204.698 11.4706H208.228V15H204.698V11.4706ZM204.698 15H208.228V18.5294H204.698V15ZM208.228 15H211.757V18.5294H208.228V15ZM208.228 11.4706H211.757V15H208.228V11.4706ZM211.757 11.4706H215.286V15H211.757V11.4706ZM215.286 11.4706H218.816V15H215.286V11.4706ZM218.816 11.4706H222.345V15H218.816V11.4706ZM222.345 11.4706H225.875V15H222.345V11.4706ZM225.875 11.4706H229.404V15H225.875V11.4706ZM229.404 11.4706H232.933V15H229.404V11.4706ZM229.404 7.94118H232.933V11.4706H229.404V7.94118ZM225.875 7.94118H229.404V11.4706H225.875V7.94118ZM222.345 7.94118H225.875V11.4706H222.345V7.94118ZM218.816 7.94118H222.345V11.4706H218.816V7.94118ZM215.286 7.94118H218.816V11.4706H215.286V7.94118ZM211.757 7.94118H215.286V11.4706H211.757V7.94118ZM208.228 18.5294H211.757V22.0588H208.228V18.5294ZM208.228 22.0588H211.757V25.5882H208.228V22.0588ZM208.228 7.94118H211.757V11.4706H208.228V7.94118ZM211.757 15H215.286V18.5294H211.757V15ZM211.757 18.5294H215.286V22.0588H211.757V18.5294ZM211.757 22.0588H215.286V25.5882H211.757V22.0588ZM211.757 25.5882H215.286V29.1176H211.757V25.5882ZM211.757 29.1176H215.286V32.6471H211.757V29.1176ZM211.757 32.6471H215.286V36.1765H211.757V32.6471ZM211.757 36.1765H215.286V39.7059H211.757V36.1765ZM211.757 39.7059H215.286V43.2353H211.757V39.7059ZM208.228 39.7059H211.757V43.2353H208.228V39.7059ZM208.228 36.1765H211.757V39.7059H208.228V36.1765ZM208.228 32.6471H211.757V36.1765H208.228V32.6471ZM208.228 29.1176H211.757V32.6471H208.228V29.1176ZM204.698 25.5882H208.228V29.1176H204.698V25.5882ZM204.698 22.0588H208.228V25.5882H204.698V22.0588ZM204.698 18.5294H208.228V22.0588H204.698V18.5294ZM204.698 29.1176H208.228V32.6471H204.698V29.1176ZM204.698 32.6471H208.228V36.1765H204.698V32.6471ZM208.228 25.5882H211.757V29.1176H208.228V25.5882ZM204.698 36.1765H208.228V39.7059H204.698V36.1765ZM204.698 39.7059H208.228V43.2353H204.698V39.7059ZM204.698 43.2353H208.228V46.7647H204.698V43.2353ZM204.698 46.7647H208.228V50.2941H204.698V46.7647ZM208.228 46.7647H211.757V50.2941H208.228V46.7647ZM211.757 46.7647H215.286V50.2941H211.757V46.7647ZM215.286 46.7647H218.816V50.2941H215.286V46.7647ZM215.286 50.2941H218.816V53.8235H215.286V50.2941ZM211.757 50.2941H215.286V53.8235H211.757V50.2941ZM208.228 50.2941H211.757V53.8235H208.228V50.2941ZM204.698 50.2941H208.228V53.8235H204.698V50.2941ZM208.228 43.2353H211.757V46.7647H208.228V43.2353ZM211.757 43.2353H215.286V46.7647H211.757V43.2353ZM215.286 43.2353H218.816V46.7647H215.286V43.2353ZM204.698 53.8235H208.228V57.3529H204.698V53.8235ZM204.698 57.3529H208.228V60.8824H204.698V57.3529ZM204.698 60.8824H208.228V64.4118H204.698V60.8824ZM204.698 64.4118H208.228V67.9412H204.698V64.4118ZM204.698 67.9412H208.228V71.4706H204.698V67.9412ZM204.698 71.4706H208.228V75H204.698V71.4706ZM208.228 71.4706H211.757V75H208.228V71.4706ZM211.757 71.4706H215.286V75H211.757V71.4706ZM215.286 71.4706H218.816V75H215.286V71.4706ZM215.286 67.9412H218.816V71.4706H215.286V67.9412ZM215.286 64.4118H218.816V67.9412H215.286V64.4118ZM215.286 60.8824H218.816V64.4118H215.286V60.8824ZM215.286 57.3529H218.816V60.8824H215.286V57.3529ZM215.286 53.8235H218.816V57.3529H215.286V53.8235ZM211.757 53.8235H215.286V57.3529H211.757V53.8235ZM208.228 53.8235H211.757V57.3529H208.228V53.8235ZM208.228 57.3529H211.757V60.8824H208.228V57.3529ZM208.228 60.8824H211.757V64.4118H208.228V60.8824ZM208.228 64.4118H211.757V67.9412H208.228V64.4118ZM208.228 67.9412H211.757V71.4706H208.228V67.9412ZM211.757 67.9412H215.286V71.4706H211.757V67.9412ZM211.757 64.4118H215.286V67.9412H211.757V64.4118ZM211.757 60.8824H215.286V64.4118H211.757V60.8824ZM211.757 57.3529H215.286V60.8824H211.757V57.3529ZM247.051 57.3529H250.581V60.8824H247.051V57.3529ZM247.051 60.8824H250.581V64.4118H247.051V60.8824ZM247.051 64.4118H250.581V67.9412H247.051V64.4118ZM247.051 67.9412H250.581V71.4706H247.051V67.9412ZM247.051 71.4706H250.581V75H247.051V71.4706ZM243.522 71.4706H247.051V75H243.522V71.4706ZM239.992 71.4706H243.522V75H239.992V71.4706ZM236.463 71.4706H239.992V75H236.463V71.4706ZM236.463 67.9412H239.992V71.4706H236.463V67.9412ZM236.463 64.4118H239.992V67.9412H236.463V64.4118ZM236.463 60.8824H239.992V64.4118H236.463V60.8824ZM239.992 60.8824H243.522V64.4118H239.992V60.8824ZM243.522 57.3529H247.051V60.8824H243.522V57.3529ZM243.522 60.8824H247.051V64.4118H243.522V60.8824ZM243.522 64.4118H247.051V67.9412H243.522V64.4118ZM239.992 64.4118H243.522V67.9412H239.992V64.4118ZM239.992 67.9412H243.522V71.4706H239.992V67.9412ZM243.522 67.9412H247.051V71.4706H243.522V67.9412ZM239.992 57.3529H243.522V60.8824H239.992V57.3529ZM236.463 57.3529H239.992V60.8824H236.463V57.3529ZM236.463 53.8235H239.992V57.3529H236.463V53.8235ZM239.992 53.8235H243.522V57.3529H239.992V53.8235ZM247.051 53.8235H250.581V57.3529H247.051V53.8235ZM243.522 53.8235H247.051V57.3529H243.522V53.8235ZM243.522 50.2941H247.051V53.8235H243.522V50.2941ZM239.992 50.2941H243.522V53.8235H239.992V50.2941ZM229.404 53.8235H232.933V57.3529H229.404V53.8235ZM232.933 53.8235H236.463V57.3529H232.933V53.8235ZM232.933 57.3529H236.463V60.8824H232.933V57.3529ZM282.218 75H278.688V71.4706H282.218V75ZM289.277 75H285.747V71.4706H289.277V75ZM278.688 75H275.159V71.4706H278.688V75ZM275.159 75H271.63V71.4706H275.159V75ZM271.63 75H268.1V71.4706H271.63V75ZM268.1 75H264.571V71.4706H268.1V75ZM264.571 71.4706H261.041V67.9412H264.571V71.4706ZM268.1 71.4706H264.571V67.9412H268.1V71.4706ZM268.1 67.9412H264.571V64.4118H268.1V67.9412ZM261.041 71.4706H257.512V67.9412H261.041V71.4706ZM261.041 67.9412H257.512V64.4118H261.041V67.9412ZM264.571 67.9412H261.041V64.4118H264.571V67.9412ZM268.1 64.4118H264.571V60.8824H268.1V64.4118ZM271.63 64.4118H268.1V60.8824H271.63V64.4118ZM264.571 64.4118H261.041V60.8824H264.571V64.4118ZM261.041 64.4118H257.512V60.8824H261.041V64.4118ZM257.512 64.4118H253.983V60.8824H257.512V64.4118ZM257.512 60.8824H253.983V57.3529H257.512V60.8824ZM257.512 39.7059H253.983V36.1765H257.512V39.7059ZM257.512 36.1765H253.983V32.6471H257.512V36.1765ZM261.041 36.1765H257.512V32.6471H261.041V36.1765ZM261.041 32.6471H257.512V29.1176H261.041V32.6471ZM261.041 29.1176H257.512V25.5882H261.041V29.1176ZM264.571 29.1176H261.041V25.5882H264.571V29.1176ZM268.1 29.1176H264.571V25.5882H268.1V29.1176ZM271.63 32.6471H268.1V29.1176H271.63V32.6471ZM271.63 36.1765H268.1V32.6471H271.63V36.1765ZM268.1 36.1765H264.571V32.6471H268.1V36.1765ZM268.1 32.6471H264.571V29.1176H268.1V32.6471ZM264.571 32.6471H261.041V29.1176H264.571V32.6471ZM264.571 36.1765H261.041V32.6471H264.571V36.1765ZM264.571 39.7059H261.041V36.1765H264.571V39.7059ZM268.1 39.7059H264.571V36.1765H268.1V39.7059ZM268.1 60.8824H264.571V57.3529H268.1V60.8824ZM264.571 60.8824H261.041V57.3529H264.571V60.8824ZM261.041 39.7059H257.512V36.1765H261.041V39.7059ZM261.041 60.8824H257.512V57.3529H261.041V60.8824ZM271.63 29.1176H268.1V25.5882H271.63V29.1176ZM271.63 25.5882H268.1V22.0588H271.63V25.5882ZM268.1 25.5882H264.571V22.0588H268.1V25.5882ZM275.159 25.5882H271.63V22.0588H275.159V25.5882ZM278.688 25.5882H275.159V22.0588H278.688V25.5882ZM282.218 25.5882H278.688V22.0588H282.218V25.5882ZM285.747 25.5882H282.218V22.0588H285.747V25.5882ZM289.277 25.5882H285.747V22.0588H289.277V25.5882ZM289.277 29.1176H285.747V25.5882H289.277V29.1176ZM292.806 29.1176H289.277V25.5882H292.806V29.1176ZM296.335 29.1176H292.806V25.5882H296.335V29.1176ZM296.335 32.6471H292.806V29.1176H296.335V32.6471ZM299.865 36.1765H296.335V32.6471H299.865V36.1765ZM296.335 36.1765H292.806V32.6471H296.335V36.1765ZM299.865 39.7059H296.335V36.1765H299.865V39.7059ZM299.865 43.2353H296.335V39.7059H299.865V43.2353ZM299.865 46.7647H296.335V43.2353H299.865V46.7647ZM299.865 50.2941H296.335V46.7647H299.865V50.2941ZM299.865 53.8235H296.335V50.2941H299.865V53.8235ZM299.865 57.3529H296.335V53.8235H299.865V57.3529ZM296.335 57.3529H292.806V53.8235H296.335V57.3529ZM296.335 60.8824H292.806V57.3529H296.335V60.8824ZM299.865 60.8824H296.335V57.3529H299.865V60.8824ZM299.865 64.4118H296.335V60.8824H299.865V64.4118ZM296.335 64.4118H292.806V60.8824H296.335V64.4118ZM296.335 67.9412H292.806V64.4118H296.335V67.9412ZM296.335 71.4706H292.806V67.9412H296.335V71.4706ZM292.806 71.4706H289.277V67.9412H292.806V71.4706ZM289.277 71.4706H285.747V67.9412H289.277V71.4706ZM285.747 71.4706H282.218V67.9412H285.747V71.4706ZM285.747 67.9412H282.218V64.4118H285.747V67.9412ZM289.277 64.4118H285.747V60.8824H289.277V64.4118ZM292.806 64.4118H289.277V60.8824H292.806V64.4118ZM289.277 60.8824H285.747V57.3529H289.277V60.8824ZM289.277 57.3529H285.747V53.8235H289.277V57.3529ZM289.277 53.8235H285.747V50.2941H289.277V53.8235ZM289.277 50.2941H285.747V46.7647H289.277V50.2941ZM289.277 46.7647H285.747V43.2353H289.277V46.7647ZM289.277 43.2353H285.747V39.7059H289.277V43.2353ZM289.277 39.7059H285.747V36.1765H289.277V39.7059ZM289.277 36.1765H285.747V32.6471H289.277V36.1765ZM285.747 36.1765H282.218V32.6471H285.747V36.1765ZM285.747 32.6471H282.218V29.1176H285.747V32.6471ZM282.218 32.6471H278.688V29.1176H282.218V32.6471ZM278.688 32.6471H275.159V29.1176H278.688V32.6471ZM275.159 32.6471H271.63V29.1176H275.159V32.6471ZM275.159 29.1176H271.63V25.5882H275.159V29.1176ZM278.688 29.1176H275.159V25.5882H278.688V29.1176ZM282.218 29.1176H278.688V25.5882H282.218V29.1176ZM285.747 29.1176H282.218V25.5882H285.747V29.1176ZM289.277 32.6471H285.747V29.1176H289.277V32.6471ZM292.806 32.6471H289.277V29.1176H292.806V32.6471ZM292.806 36.1765H289.277V32.6471H292.806V36.1765ZM292.806 39.7059H289.277V36.1765H292.806V39.7059ZM292.806 43.2353H289.277V39.7059H292.806V43.2353ZM296.335 43.2353H292.806V39.7059H296.335V43.2353ZM296.335 39.7059H292.806V36.1765H296.335V39.7059ZM296.335 46.7647H292.806V43.2353H296.335V46.7647ZM296.335 50.2941H292.806V46.7647H296.335V50.2941ZM296.335 53.8235H292.806V50.2941H296.335V53.8235ZM292.806 53.8235H289.277V50.2941H292.806V53.8235ZM292.806 50.2941H289.277V46.7647H292.806V50.2941ZM292.806 46.7647H289.277V43.2353H292.806V46.7647ZM292.806 57.3529H289.277V53.8235H292.806V57.3529ZM292.806 60.8824H289.277V57.3529H292.806V60.8824ZM292.806 67.9412H289.277V64.4118H292.806V67.9412ZM289.277 67.9412H285.747V64.4118H289.277V67.9412ZM282.218 71.4706H278.688V67.9412H282.218V71.4706ZM278.688 71.4706H275.159V67.9412H278.688V71.4706ZM275.159 71.4706H271.63V67.9412H275.159V71.4706ZM271.63 71.4706H268.1V67.9412H271.63V71.4706ZM271.63 67.9412H268.1V64.4118H271.63V67.9412ZM275.159 67.9412H271.63V64.4118H275.159V67.9412ZM278.688 67.9412H275.159V64.4118H278.688V67.9412ZM282.218 67.9412H278.688V64.4118H282.218V67.9412ZM261.041 57.3529H257.512V53.8235H261.041V57.3529ZM264.571 57.3529H261.041V53.8235H264.571V57.3529ZM268.1 57.3529H264.571V53.8235H268.1V57.3529ZM261.041 53.8235H257.512V50.2941H261.041V53.8235ZM264.571 53.8235H261.041V50.2941H264.571V53.8235ZM268.1 53.8235H264.571V50.2941H268.1V53.8235ZM271.63 53.8235H268.1V50.2941H271.63V53.8235ZM275.159 53.8235H271.63V50.2941H275.159V53.8235ZM278.688 53.8235H275.159V50.2941H278.688V53.8235ZM282.218 53.8235H278.688V50.2941H282.218V53.8235ZM285.747 53.8235H282.218V50.2941H285.747V53.8235ZM285.747 50.2941H282.218V46.7647H285.747V50.2941ZM282.218 50.2941H278.688V46.7647H282.218V50.2941ZM278.688 50.2941H275.159V46.7647H278.688V50.2941ZM275.159 50.2941H271.63V46.7647H275.159V50.2941ZM271.63 50.2941H268.1V46.7647H271.63V50.2941ZM268.1 50.2941H264.571V46.7647H268.1V50.2941ZM296.335 64.4118H299.865V67.9412H296.335V64.4118ZM296.335 67.9412H299.865V71.4706H296.335V67.9412ZM296.335 71.4706H299.865V75H296.335V71.4706ZM292.806 71.4706H296.335V75H292.806V71.4706ZM289.277 71.4706H292.806V75H289.277V71.4706ZM268.1 53.8235H271.63V57.3529H268.1V53.8235ZM306.796 25.5882H310.326V29.1176H306.796V25.5882ZM306.796 29.1176H310.326V32.6471H306.796V29.1176ZM306.796 32.6471H310.326V36.1765H306.796V32.6471ZM306.796 36.1765H310.326V39.7059H306.796V36.1765ZM306.796 39.7059H310.326V43.2353H306.796V39.7059ZM303.267 39.7059H306.796V43.2353H303.267V39.7059ZM303.267 36.1765H306.796V39.7059H303.267V36.1765ZM303.267 32.6471H306.796V36.1765H303.267V32.6471ZM303.267 29.1176H306.796V32.6471H303.267V29.1176ZM303.267 25.5882H306.796V29.1176H303.267V25.5882ZM303.267 60.8824H306.796V64.4118H303.267V60.8824ZM303.267 57.3529H306.796V60.8824H303.267V57.3529ZM303.267 53.8235H306.796V57.3529H303.267V53.8235ZM303.267 50.2941H306.796V53.8235H303.267V50.2941ZM306.796 46.7647H310.326V50.2941H306.796V46.7647ZM306.796 43.2353H310.326V46.7647H306.796V43.2353ZM303.267 43.2353H306.796V46.7647H303.267V43.2353ZM303.267 46.7647H306.796V50.2941H303.267V46.7647ZM303.267 64.4118H306.796V67.9412H303.267V64.4118ZM303.267 67.9412H306.796V71.4706H303.267V67.9412ZM303.267 71.4706H306.796V75H303.267V71.4706ZM313.855 25.5882H317.385V29.1176H313.855V25.5882ZM313.855 29.1176H317.385V32.6471H313.855V29.1176ZM313.855 32.6471H317.385V36.1765H313.855V32.6471ZM313.855 36.1765H317.385V39.7059H313.855V36.1765ZM313.855 39.7059H317.385V43.2353H313.855V39.7059ZM313.855 43.2353H317.385V46.7647H313.855V43.2353ZM313.855 46.7647H317.385V50.2941H313.855V46.7647ZM313.855 50.2941H317.385V53.8235H313.855V50.2941ZM313.855 53.8235H317.385V57.3529H313.855V53.8235ZM313.855 57.3529H317.385V60.8824H313.855V57.3529ZM313.855 60.8824H317.385V64.4118H313.855V60.8824ZM313.855 64.4118H317.385V67.9412H313.855V64.4118ZM313.855 67.9412H317.385V71.4706H313.855V67.9412ZM313.855 71.4706H317.385V75H313.855V71.4706ZM310.326 71.4706H313.855V75H310.326V71.4706ZM306.796 71.4706H310.326V75H306.796V71.4706ZM306.796 67.9412H310.326V71.4706H306.796V67.9412ZM310.326 67.9412H313.855V71.4706H310.326V67.9412ZM310.326 64.4118H313.855V67.9412H310.326V64.4118ZM306.796 60.8824H310.326V64.4118H306.796V60.8824ZM306.796 57.3529H310.326V60.8824H306.796V57.3529ZM306.796 53.8235H310.326V57.3529H306.796V53.8235ZM310.326 53.8235H313.855V57.3529H310.326V53.8235ZM310.326 57.3529H313.855V60.8824H310.326V57.3529ZM310.326 60.8824H313.855V64.4118H310.326V60.8824ZM306.796 64.4118H310.326V67.9412H306.796V64.4118ZM310.326 50.2941H313.855V53.8235H310.326V50.2941ZM310.326 46.7647H313.855V50.2941H310.326V46.7647ZM310.326 43.2353H313.855V46.7647H310.326V43.2353ZM306.796 50.2941H310.326V53.8235H306.796V50.2941ZM310.326 39.7059H313.855V43.2353H310.326V39.7059ZM310.326 36.1765H313.855V39.7059H310.326V36.1765ZM310.326 32.6471H313.855V36.1765H310.326V32.6471ZM310.326 29.1176H313.855V32.6471H310.326V29.1176ZM310.326 25.5882H313.855V29.1176H310.326V25.5882ZM313.855 4.41177H317.385V7.94118H313.855V4.41177ZM310.326 7.94118H313.855V11.4706H310.326V7.94118ZM310.326 0.882354H313.855V4.41177H310.326V0.882354ZM306.796 4.41177H310.326V7.94118H306.796V4.41177ZM310.326 4.41177H313.855V7.94118H310.326V4.41177ZM306.796 0.882354H310.326V4.41177H306.796V0.882354ZM306.796 7.94118H310.326V11.4706H306.796V7.94118ZM313.855 7.94118H317.385V11.4706H313.855V7.94118ZM303.267 4.41177H306.796V7.94118H303.267V4.41177ZM303.267 7.94118H306.796V11.4706H303.267V7.94118ZM306.796 11.4706H310.326V15H306.796V11.4706ZM310.326 11.4706H313.855V15H310.326V11.4706ZM303.267 0.882354H306.796V4.41177H303.267V0.882354ZM313.855 0.882354H317.385V4.41177H313.855V0.882354ZM313.855 11.4706H317.385V15H313.855V11.4706ZM303.267 11.4706H306.796V15H303.267V11.4706ZM366.676 4.41177V7.94118H363.146V4.41177H366.676ZM363.146 4.41177V7.94118H359.617V4.41177H363.146ZM359.617 4.41177V7.94118H356.088V4.41177H359.617ZM356.088 4.41177V7.94118H352.558V4.41177H356.088ZM356.088 7.94118V11.4706H352.558V7.94118H356.088ZM356.088 11.4706V15H352.558V11.4706H356.088ZM359.617 11.4706V15H356.088V11.4706H359.617ZM363.146 11.4706V15H359.617V11.4706H363.146ZM363.146 7.94118V11.4706H359.617V7.94118H363.146ZM366.676 7.94118V11.4706H363.146V7.94118H366.676ZM359.617 7.94118V11.4706H356.088V7.94118H359.617ZM366.676 11.4706V15H363.146V11.4706H366.676ZM366.676 15V18.5294H363.146V15H366.676ZM366.676 18.5294V22.0588H363.146V18.5294H366.676ZM363.146 18.5294V22.0588H359.617V18.5294H363.146ZM359.617 18.5294V22.0588H356.088V18.5294H359.617ZM356.088 18.5294V22.0588H352.558V18.5294H356.088ZM356.088 15V18.5294H352.558V15H356.088ZM359.617 15V18.5294H356.088V15H359.617ZM363.146 15V18.5294H359.617V15H363.146ZM366.676 22.0588V25.5882H363.146V22.0588H366.676ZM363.146 22.0588V25.5882H359.617V22.0588H363.146ZM359.617 22.0588V25.5882H356.088V22.0588H359.617ZM366.676 29.1176V32.6471H363.146V29.1176H366.676ZM366.676 25.5882V29.1176H363.146V25.5882H366.676ZM359.617 71.4706V75H356.088V71.4706H359.617ZM363.146 71.4706V75H359.617V71.4706H363.146ZM366.676 67.9412V71.4706H363.146V67.9412H366.676ZM366.676 64.4118V67.9412H363.146V64.4118H366.676ZM366.676 71.4706V75H363.146V71.4706H366.676ZM349.029 22.0588V25.5882H345.499V22.0588H349.029ZM356.088 22.0588V25.5882H352.558V22.0588H356.088ZM345.499 22.0588V25.5882H341.97V22.0588H345.499ZM341.97 22.0588V25.5882H338.441V22.0588H341.97ZM338.441 22.0588V25.5882H334.911V22.0588H338.441ZM334.911 22.0588V25.5882H331.382V22.0588H334.911ZM331.382 25.5882V29.1176H327.852V25.5882H331.382ZM334.911 25.5882V29.1176H331.382V25.5882H334.911ZM334.911 29.1176V32.6471H331.382V29.1176H334.911ZM327.852 25.5882V29.1176H324.323V25.5882H327.852ZM327.852 29.1176V32.6471H324.323V29.1176H327.852ZM331.382 29.1176V32.6471H327.852V29.1176H331.382ZM334.911 32.6471V36.1765H331.382V32.6471H334.911ZM338.441 32.6471V36.1765H334.911V32.6471H338.441ZM331.382 32.6471V36.1765H327.852V32.6471H331.382ZM327.852 32.6471V36.1765H324.323V32.6471H327.852ZM324.323 32.6471V36.1765H320.793V32.6471H324.323ZM324.323 36.1765V39.7059H320.793V36.1765H324.323ZM324.323 39.7059V43.2353H320.793V39.7059H324.323ZM324.323 43.2353V46.7647H320.793V43.2353H324.323ZM324.323 46.7647V50.2941H320.793V46.7647H324.323ZM324.323 50.2941V53.8235H320.793V50.2941H324.323ZM324.323 53.8235V57.3529H320.793V53.8235H324.323ZM324.323 57.3529V60.8824H320.793V57.3529H324.323ZM324.323 60.8824V64.4118H320.793V60.8824H324.323ZM327.852 60.8824V64.4118H324.323V60.8824H327.852ZM327.852 64.4118V67.9412H324.323V64.4118H327.852ZM327.852 67.9412V71.4706H324.323V67.9412H327.852ZM331.382 67.9412V71.4706H327.852V67.9412H331.382ZM334.911 67.9412V71.4706H331.382V67.9412H334.911ZM338.441 64.4118V67.9412H334.911V64.4118H338.441ZM338.441 60.8824V64.4118H334.911V60.8824H338.441ZM334.911 60.8824V64.4118H331.382V60.8824H334.911ZM334.911 64.4118V67.9412H331.382V64.4118H334.911ZM331.382 64.4118V67.9412H327.852V64.4118H331.382ZM331.382 60.8824V64.4118H327.852V60.8824H331.382ZM331.382 57.3529V60.8824H327.852V57.3529H331.382ZM334.911 57.3529V60.8824H331.382V57.3529H334.911ZM334.911 53.8235V57.3529H331.382V53.8235H334.911ZM334.911 50.2941V53.8235H331.382V50.2941H334.911ZM334.911 46.7647V50.2941H331.382V46.7647H334.911ZM334.911 43.2353V46.7647H331.382V43.2353H334.911ZM334.911 39.7059V43.2353H331.382V39.7059H334.911ZM334.911 36.1765V39.7059H331.382V36.1765H334.911ZM331.382 36.1765V39.7059H327.852V36.1765H331.382ZM331.382 39.7059V43.2353H327.852V39.7059H331.382ZM331.382 43.2353V46.7647H327.852V43.2353H331.382ZM331.382 46.7647V50.2941H327.852V46.7647H331.382ZM331.382 50.2941V53.8235H327.852V50.2941H331.382ZM331.382 53.8235V57.3529H327.852V53.8235H331.382ZM327.852 57.3529V60.8824H324.323V57.3529H327.852ZM327.852 53.8235V57.3529H324.323V53.8235H327.852ZM327.852 50.2941V53.8235H324.323V50.2941H327.852ZM327.852 46.7647V50.2941H324.323V46.7647H327.852ZM327.852 43.2353V46.7647H324.323V43.2353H327.852ZM327.852 39.7059V43.2353H324.323V39.7059H327.852ZM327.852 36.1765V39.7059H324.323V36.1765H327.852ZM338.441 67.9412V71.4706H334.911V67.9412H338.441ZM338.441 71.4706V75H334.911V71.4706H338.441ZM334.911 71.4706V75H331.382V71.4706H334.911ZM341.97 71.4706V75H338.441V71.4706H341.97ZM345.499 71.4706V75H341.97V71.4706H345.499ZM349.029 71.4706V75H345.499V71.4706H349.029ZM356.088 71.4706V75H352.558V71.4706H356.088ZM356.088 67.9412V71.4706H352.558V67.9412H356.088ZM359.617 67.9412V71.4706H356.088V67.9412H359.617ZM363.146 67.9412V71.4706H359.617V67.9412H363.146ZM363.146 39.7059V43.2353H359.617V39.7059H363.146ZM363.146 36.1765V39.7059H359.617V36.1765H363.146ZM366.676 32.6471V36.1765H363.146V32.6471H366.676ZM363.146 29.1176V32.6471H359.617V29.1176H363.146ZM359.617 25.5882V29.1176H356.088V25.5882H359.617ZM356.088 25.5882V29.1176H352.558V25.5882H356.088ZM352.558 25.5882V29.1176H349.029V25.5882H352.558ZM352.558 29.1176V32.6471H349.029V29.1176H352.558ZM356.088 32.6471V36.1765H352.558V32.6471H356.088ZM359.617 32.6471V36.1765H356.088V32.6471H359.617ZM356.088 36.1765V39.7059H352.558V36.1765H356.088ZM356.088 39.7059V43.2353H352.558V39.7059H356.088ZM356.088 43.2353V46.7647H352.558V43.2353H356.088ZM349.029 64.4118V67.9412H345.499V64.4118H349.029ZM345.499 64.4118V67.9412H341.97V64.4118H345.499ZM341.97 64.4118V67.9412H338.441V64.4118H341.97ZM341.97 67.9412V71.4706H338.441V67.9412H341.97ZM345.499 67.9412V71.4706H341.97V67.9412H345.499ZM349.029 67.9412V71.4706H345.499V67.9412H349.029ZM352.558 67.9412V71.4706H349.029V67.9412H352.558ZM356.088 64.4118V67.9412H352.558V64.4118H356.088ZM359.617 64.4118V67.9412H356.088V64.4118H359.617ZM359.617 39.7059V43.2353H356.088V39.7059H359.617ZM359.617 36.1765V39.7059H356.088V36.1765H359.617ZM359.617 29.1176V32.6471H356.088V29.1176H359.617ZM356.088 29.1176V32.6471H352.558V29.1176H356.088ZM349.029 25.5882V29.1176H345.499V25.5882H349.029ZM345.499 25.5882V29.1176H341.97V25.5882H345.499ZM341.97 25.5882V29.1176H338.441V25.5882H341.97ZM338.441 25.5882V29.1176H334.911V25.5882H338.441ZM338.441 29.1176V32.6471H334.911V29.1176H338.441ZM341.97 29.1176V32.6471H338.441V29.1176H341.97ZM345.499 29.1176V32.6471H341.97V29.1176H345.499ZM349.029 29.1176V32.6471H345.499V29.1176H349.029ZM363.146 25.5882V29.1176H359.617V25.5882H363.146ZM363.146 64.4118V67.9412H359.617V64.4118H363.146ZM363.146 32.6471V36.1765H359.617V32.6471H363.146ZM366.676 36.1765V39.7059H363.146V36.1765H366.676ZM366.676 39.7059V43.2353H363.146V39.7059H366.676ZM366.676 60.8824V64.4118H363.146V60.8824H366.676ZM363.146 60.8824V64.4118H359.617V60.8824H363.146ZM359.617 60.8824V64.4118H356.088V60.8824H359.617ZM356.088 60.8824V64.4118H352.558V60.8824H356.088ZM359.617 43.2353V46.7647H356.088V43.2353H359.617ZM363.146 43.2353V46.7647H359.617V43.2353H363.146ZM366.676 43.2353V46.7647H363.146V43.2353H366.676ZM366.676 46.7647V50.2941H363.146V46.7647H366.676ZM366.676 50.2941V53.8235H363.146V50.2941H366.676ZM366.676 53.8235V57.3529H363.146V53.8235H366.676ZM363.146 53.8235V57.3529H359.617V53.8235H363.146ZM363.146 57.3529V60.8824H359.617V57.3529H363.146ZM359.617 57.3529V60.8824H356.088V57.3529H359.617ZM366.676 57.3529V60.8824H363.146V57.3529H366.676ZM356.088 57.3529V60.8824H352.558V57.3529H356.088ZM356.088 53.8235V57.3529H352.558V53.8235H356.088ZM356.088 50.2941V53.8235H352.558V50.2941H356.088ZM356.088 46.7647V50.2941H352.558V46.7647H356.088ZM359.617 46.7647V50.2941H356.088V46.7647H359.617ZM363.146 46.7647V50.2941H359.617V46.7647H363.146ZM363.146 50.2941V53.8235H359.617V50.2941H363.146ZM359.617 53.8235V57.3529H356.088V53.8235H359.617ZM359.617 50.2941V53.8235H356.088V50.2941H359.617ZM349.029 22.0588H352.558V25.5882H349.029V22.0588ZM349.029 64.4118H352.558V67.9412H349.029V64.4118ZM349.029 60.8824H352.558V64.4118H349.029V60.8824Z" fill="url(#paint0_linear_35_2)"/>
<defs>
<linearGradient id="paint0_linear_35_2" x1="191.763" y1="-20" x2="186.983" y2="108.177" gradientUnits="userSpaceOnUse">
<stop stop-color="#F679CB"/>
<stop offset="1" stop-color="#FDB3D4"/>
</linearGradient>
</defs>
</svg>
