<svg width="856" height="77" viewBox="0 0 856 77" fill="none" xmlns="http://www.w3.org/2000/svg">
<path d="M32.92 3V6.24C32.92 27.36 31.6 46.28 28.96 63H0.16C1.68 55.64 2.44 47.16 2.44 37.56C2.44 27.88 1.8 16.36 0.52 3H32.92ZM109.898 3C110.378 11.4 110.618 20.28 110.618 29.64C110.618 38.92 110.218 50.04 109.418 63H97.8981C82.3781 54.68 68.1381 43.36 55.1781 29.04C55.8181 34.4 56.1381 39.92 56.1381 45.6C56.1381 51.2 55.9381 57 55.5381 63H41.4981C43.0981 53.16 43.8981 44.08 43.8981 35.76C43.8981 27.36 43.4981 20.72 42.6981 15.84C39.4981 11.04 36.9781 6.76 35.1381 3H69.2181C72.5781 8.76 77.1381 14.72 82.8981 20.88C88.7381 26.96 94.2981 31.72 99.5781 35.16C99.5781 23.48 98.2581 12.76 95.6181 3H109.898ZM160.519 28.92L171.919 29.64C172.959 29.64 173.759 29.6 174.319 29.52L168.679 40.08H167.599C166.079 40.08 163.919 39.68 161.119 38.88C158.319 38 156.319 37.56 155.119 37.56C151.999 37.56 149.479 39.6 147.559 43.68C147.159 48.24 146.959 51.84 146.959 54.48C146.959 57.12 147.039 59.96 147.199 63H121.159C119.639 52.76 118.879 42.2 118.879 31.32C118.879 20.36 119.439 10.96 120.559 3.12H184.639C183.199 11.76 181.919 17.8 180.799 21.24L167.839 21.84C168.559 19.84 168.919 18.12 168.919 16.68C168.919 12.84 165.999 10.92 160.159 10.92C157.599 10.92 155.239 11.12 153.079 11.52C151.319 18.64 149.879 25.92 148.759 33.36C151.959 30.4 155.879 28.92 160.519 28.92ZM227.856 27.12L239.136 27.84C240.256 27.84 241.096 27.8 241.656 27.72L236.016 38.28H234.936C233.416 38.28 231.256 37.88 228.456 37.08C225.656 36.2 223.656 35.76 222.456 35.76C219.176 35.76 216.576 37.88 214.656 42.12C214.336 46.04 214.096 49.96 213.936 53.88C218.096 54.68 221.376 55.08 223.776 55.08H224.856C228.296 55.08 231.016 54.32 233.016 52.8C235.096 51.28 236.576 48.56 237.456 44.64L251.856 45.24C250.656 52.12 249.056 58.04 247.056 63H188.136C186.536 52.2 185.736 41.48 185.736 30.84C185.736 20.2 186.296 10.92 187.416 3H251.736C250.296 11.64 249.016 17.72 247.896 21.24C243.176 21.48 238.856 21.64 234.936 21.72C235.576 19.88 235.896 18.16 235.896 16.56C235.896 12.72 233.016 10.8 227.256 10.8C225.096 10.8 222.696 11.04 220.056 11.52C218.296 19.12 216.936 25.8 215.976 31.56C219.176 28.6 223.136 27.12 227.856 27.12ZM326.004 23.88L325.884 27.96C319.484 31.4 311.484 34.08 301.884 36C308.764 37.84 315.404 38.76 321.804 38.76H324.324C328.724 45.24 331.564 53.32 332.844 63H301.764C300.964 57.4 299.324 52.6 296.844 48.6C294.444 44.52 291.484 41.76 287.964 40.32C287.884 41.68 287.844 44.4 287.844 48.48C287.844 52.56 288.084 57.4 288.564 63H262.404C260.084 51.4 258.924 40.64 258.924 30.72C258.924 20.72 259.484 11.48 260.604 3H323.244C325.084 11.08 326.004 18.04 326.004 23.88ZM290.484 11.04C289.524 18.08 288.804 25 288.324 31.8C292.724 31.16 296.324 29.6 299.124 27.12C297.604 21.76 294.724 16.4 290.484 11.04ZM406.411 3C406.891 11.4 407.131 20.28 407.131 29.64C407.131 38.92 406.731 50.04 405.931 63H394.411C378.891 54.68 364.651 43.36 351.691 29.04C352.331 34.4 352.651 39.92 352.651 45.6C352.651 51.2 352.451 57 352.051 63H338.011C339.611 53.16 340.411 44.08 340.411 35.76C340.411 27.36 340.011 20.72 339.211 15.84C336.011 11.04 333.491 6.76 331.651 3H365.731C369.091 8.76 373.651 14.72 379.411 20.88C385.251 26.96 390.811 31.72 396.091 35.16C396.091 23.48 394.771 12.76 392.131 3H406.411ZM422.232 62.64C415.112 53.52 411.552 44.16 411.552 34.56C411.552 24.96 415.552 16.84 423.552 10.2C431.552 3.56 441.792 0.24 454.272 0.24C460.912 0.24 467.512 1.24 474.072 3.24C479.832 10.52 482.712 18.32 482.712 26.64C482.712 37.12 478.432 46.24 469.872 54C461.312 61.76 450.952 65.64 438.792 65.64C433.592 65.64 428.072 64.64 422.232 62.64ZM440.472 10.68C437.672 15.48 436.272 21.12 436.272 27.6C436.272 34.08 437.672 40.08 440.472 45.6C443.352 51.04 447.272 54.96 452.232 57.36C455.992 52.56 457.872 47 457.872 40.68C457.872 34.36 456.312 28.48 453.192 23.04C450.152 17.6 445.912 13.48 440.472 10.68ZM494.736 62.64C487.616 53.52 484.056 44.2 484.056 34.68C484.056 25.08 488.056 16.96 496.056 10.32C504.056 3.6 514.296 0.24 526.776 0.24C533.656 0.24 540.216 1.2 546.456 3.12C552.296 10.48 555.216 18.36 555.216 26.76C555.216 38.2 550.216 47.92 540.216 55.92C541.096 55.76 542.696 55.36 545.016 54.72C547.336 54.08 549.216 53.76 550.656 53.76C552.176 53.76 553.776 54.04 555.456 54.6L564.096 65.76C562.496 63.84 560.136 62.88 557.016 62.88C553.976 62.88 549.896 63.32 544.776 64.2C539.656 65.08 536.176 65.56 534.336 65.64C532.736 64.92 531.136 63.72 529.536 62.04C523.696 64.44 517.896 65.64 512.136 65.64C506.376 65.64 500.576 64.64 494.736 62.64ZM512.976 10.8C510.096 15.76 508.656 21.44 508.656 27.84C508.656 34.16 510.096 40.08 512.976 45.6C515.856 51.04 519.776 54.96 524.736 57.36C528.496 52.56 530.376 47 530.376 40.68C530.376 34.36 528.816 28.48 525.696 23.04C522.656 17.6 518.416 13.52 512.976 10.8ZM630.938 3C631.258 8.2 631.418 15.8 631.418 25.8C631.418 35.72 630.778 46.32 629.498 57.6C621.178 62.96 611.218 65.64 599.618 65.64C584.178 65.64 571.698 62.96 562.178 57.6C561.138 48.96 560.618 40.6 560.618 32.52C560.618 24.36 561.218 14.52 562.418 3H594.698C591.498 20.36 589.818 37.04 589.658 53.04C593.018 56.08 597.858 57.6 604.178 57.6C610.498 57.6 615.338 56.48 618.698 54.24C618.858 51.6 618.938 47.8 618.938 42.84C618.938 30.2 617.818 16.92 615.578 3H630.938ZM678.719 27.12L689.999 27.84C691.119 27.84 691.959 27.8 692.519 27.72L686.879 38.28H685.799C684.279 38.28 682.119 37.88 679.319 37.08C676.519 36.2 674.519 35.76 673.319 35.76C670.039 35.76 667.439 37.88 665.519 42.12C665.199 46.04 664.959 49.96 664.799 53.88C668.959 54.68 672.239 55.08 674.639 55.08H675.719C679.159 55.08 681.879 54.32 683.879 52.8C685.959 51.28 687.439 48.56 688.319 44.64L702.719 45.24C701.519 52.12 699.919 58.04 697.919 63H638.999C637.399 52.2 636.599 41.48 636.599 30.84C636.599 20.2 637.159 10.92 638.279 3H702.599C701.159 11.64 699.879 17.72 698.759 21.24C694.039 21.48 689.719 21.64 685.799 21.72C686.439 19.88 686.759 18.16 686.759 16.56C686.759 12.72 683.879 10.8 678.119 10.8C675.959 10.8 673.559 11.04 670.919 11.52C669.159 19.12 667.799 25.8 666.839 31.56C670.039 28.6 673.999 27.12 678.719 27.12ZM752.987 10.2C749.787 9.72 746.347 9.48 742.667 9.48C739.067 9.48 735.547 9.72 732.107 10.2C734.267 13.88 736.827 16.88 739.787 19.2C742.747 21.52 746.467 23.84 750.947 26.16C755.507 28.4 759.187 30.48 761.987 32.4C764.867 34.32 768.027 37.48 771.467 41.88C774.907 46.28 777.067 50.88 777.947 55.68C774.107 60.64 769.027 65 762.707 68.76C756.387 72.6 749.907 75.16 743.267 76.44C738.787 76.04 733.107 74.76 726.227 72.6C719.427 70.52 714.307 69.48 710.867 69.48C707.427 69.48 703.987 70.56 700.547 72.72C701.987 68.64 704.347 63.52 707.627 57.36H708.587C713.707 57.36 718.507 58.16 722.987 59.76C727.547 61.36 731.667 62.96 735.347 64.56C739.107 66.16 742.107 66.96 744.347 66.96C746.667 66.96 748.347 66.8 749.387 66.48C749.387 61.2 747.747 56.84 744.467 53.4C742.707 51.56 741.187 50.16 739.907 49.2C738.707 48.16 736.827 46.76 734.267 45L732.227 43.56C726.787 39.8 722.307 36 718.787 32.16C715.267 28.24 712.707 23.44 711.107 17.76C713.667 12.08 716.187 7.16 718.667 3C726.267 1.16 734.147 0.24 742.307 0.24H747.587C754.467 0.24 762.347 1.2 771.227 3.12C769.947 8.4 768.387 13.16 766.547 17.4C759.827 17.88 754.627 18.12 750.947 18.12C751.667 16.28 752.347 13.64 752.987 10.2ZM827.838 10.8C825.758 23.44 824.718 33.76 824.718 41.76C824.718 49.76 825.038 56.84 825.678 63H799.518C796.798 50.28 795.438 36.6 795.438 21.96C795.438 19.48 795.518 15.76 795.678 10.8C788.878 12.8 784.718 17.4 783.198 24.6L771.318 23.88L775.638 3H855.438C853.838 11.8 851.998 19 849.918 24.6L837.798 23.88C838.118 22.6 838.278 21.32 838.278 20.04C838.278 16.92 837.318 14.6 835.398 13.08C833.478 11.56 830.958 10.8 827.838 10.8Z" fill="url(#paint0_linear_38_7)"/>
<defs>
<linearGradient id="paint0_linear_38_7" x1="-8" y1="30" x2="856" y2="30" gradientUnits="userSpaceOnUse">
<stop stop-color="#0EA371"/>
<stop offset="1" stop-color="#053D2A"/>
</linearGradient>
</defs>
</svg>
